<?xml version="1.0" standalone="no"?>
<!DOCTYPE svg PUBLIC "-//W3C//DTD SVG 1.1//EN" "http://www.w3.org/Graphics/SVG/1.1/DTD/svg11.dtd" >
<svg xmlns="http://www.w3.org/2000/svg" xmlns:xlink="http://www.w3.org/1999/xlink" version="1.1">
<metadata></metadata>
<defs>
<font id="glegoobold" horiz-adv-x="1204" >
<font-face units-per-em="2048" ascent="1638" descent="-410" />
<missing-glyph horiz-adv-x="546" />
<glyph horiz-adv-x="0" />
<glyph horiz-adv-x="0" />
<glyph unicode=" "  horiz-adv-x="546" />
<glyph unicode="&#x09;" horiz-adv-x="546" />
<glyph unicode="&#xa0;" horiz-adv-x="546" />
<glyph unicode="!" horiz-adv-x="645" d="M201 127q0 43 6 69.5t33.5 50t81.5 23.5q78 0 101 -38.5t23 -104.5q0 -43 -6 -69.5t-34.5 -50t-83.5 -23.5q-53 0 -81 23.5t-34 50t-6 69.5zM207 1147l51 -744h127l51 744v348h-229v-348z" />
<glyph unicode="&#x22;" horiz-adv-x="851" d="M139 1315l45 -334h123l45 334v180h-213v-180zM500 1315l45 -334h121l45 334v180h-211v-180z" />
<glyph unicode="#" horiz-adv-x="1662" d="M115 283h223l-90 -500h209l90 500h426l-90 -500h209l90 500h225l29 168h-224l86 469h222l28 167h-219l90 500h-209l-90 -500h-426l90 500h-209l-90 -500h-227l-31 -167h228l-86 -469h-226zM578 451l86 469h426l-86 -469h-426z" />
<glyph unicode="$" d="M133 375q0 -186 92 -286.5t310 -115.5v-125h141v125q412 27 411 398q0 172 -90 268t-284 125l-37 4v461q109 -12 155 -71.5t46 -170.5l184 14q0 184 -90 283.5t-295 114.5v125h-141v-125q-207 -14 -297.5 -115.5t-90.5 -286.5q0 -172 84 -267t269 -122l35 -6v-465 q-119 12 -169.5 75.5t-50.5 174.5zM354 997q0 100 40 156.5t141 73.5v-436h-3q-178 24 -178 206zM676 139v443h2q203 -33 203 -211q0 -104 -46.5 -161.5t-158.5 -70.5z" />
<glyph unicode="%" horiz-adv-x="2021" d="M131 968.5q0 -112.5 9.5 -182t41 -132t96 -90t166.5 -27.5t167 27.5t95.5 90t40 131t9.5 183.5q0 113 -9.5 181.5t-40 130.5t-95 90t-167 28t-167 -28t-96 -90t-41 -131t-9.5 -181.5zM295 969q0 176 26.5 240.5t122.5 64.5q94 0 122 -65.5t28 -239.5q0 -176 -28 -241.5 t-122 -65.5q-96 0 -122.5 65.5t-26.5 241.5zM692 -135h139l441 1640h-142zM1260 415.5q0 -112.5 9 -182t40.5 -132t96.5 -90t167 -27.5t166.5 27.5t95.5 90t40 131t9 183.5q0 113 -9 181.5t-40 131t-95.5 90t-167 27.5t-167 -27.5t-96 -90t-40.5 -131.5t-9 -181.5zM1423 416 q0 176 27 240.5t123 64.5q94 0 121.5 -65.5t27.5 -239.5q0 -176 -27.5 -241.5t-121.5 -65.5q-96 0 -123 65.5t-27 241.5z" />
<glyph unicode="&#x26;" horiz-adv-x="1271" d="M104 377q0 274 238 364q-199 98 -199 324q0 389 424 389q223 0 318.5 -104.5t95.5 -317.5h-184q0 127 -50.5 190.5t-166.5 63.5q-125 0 -177.5 -60.5t-52.5 -174.5q0 -111 63.5 -177.5t190.5 -66.5h668v-156h-223v-260q0 -219 -101.5 -319.5t-367.5 -100.5 q-476 0 -476 406zM311 383q0 -123 65.5 -183.5t215.5 -60.5q147 0 209.5 62.5t62.5 189.5v260h-278q-275 0 -275 -268z" />
<glyph unicode="'" horiz-adv-x="491" d="M139 1315l45 -334h123l45 334v180h-213v-180z" />
<glyph unicode="(" horiz-adv-x="641" d="M113 686q0 170 9 282.5t38.5 223.5t84 173t148.5 101t228 39v-159q-76 0 -129.5 -31t-84 -81t-47 -139t-21.5 -180.5t-5 -228.5q0 -139 5 -229t21.5 -180.5t47 -140.5t84 -80.5t129.5 -30.5v-160q-113 0 -196 23.5t-138.5 75.5t-90 116.5t-53 165t-24.5 200t-6 240.5z " />
<glyph unicode=")" horiz-adv-x="641" d="M23 25q76 0 129 30.5t82.5 80.5t46 140.5t21.5 179.5t5 228q0 115 -3 193.5t-13 160.5t-29.5 133.5t-50.5 93.5t-78 61.5t-110 19.5v159q133 0 226 -37.5t147.5 -100t84 -173.5t38.5 -224.5t9 -285.5q0 -170 -9 -282.5t-38.5 -223t-84 -173t-147.5 -101.5t-226 -39v160z " />
<glyph unicode="*" horiz-adv-x="1150" d="M59 1151l170 -57l246 -9l21 62l-203 135l-170 55zM195 735l163 -121l107 148l80 229l-51 39l-195 -145zM469 1417l74 -235h65l74 235v178h-213v-178zM604 991l82 -229l107 -148l163 121l-104 150l-195 143zM657 1147l19 -64l246 11l170 57l-64 186l-170 -55z" />
<glyph unicode="+" d="M193 573h331v-331h156v331h332v156h-332v332h-156v-332h-331v-156z" />
<glyph unicode="," horiz-adv-x="479" d="M68 -195l57 -69q233 184 233 391q0 43 -6 69.5t-33.5 50t-80.5 23.5q-51 0 -78 -23.5t-33 -50t-6 -69.5q0 -35 16.5 -87t16.5 -73q0 -53 -21.5 -87t-64.5 -75z" />
<glyph unicode="-" horiz-adv-x="1007" d="M143 573h721v156h-721v-156z" />
<glyph unicode="." horiz-adv-x="487" d="M121 127q0 -43 6 -69.5t34 -50t81 -23.5q78 0 101.5 38.5t23.5 104.5q0 43 -6.5 69.5t-35 50t-83.5 23.5q-53 0 -81 -23.5t-34 -50t-6 -69.5z" />
<glyph unicode="/" horiz-adv-x="694" d="M0 -217h209l485 1804h-209z" />
<glyph unicode="0" d="M109 686q0 -123 6 -207t22.5 -172t50 -144.5t87 -102.5t135 -67.5t190.5 -21.5q131 0 223 34t145.5 89.5t82 152.5t37 194.5t8.5 245t-8.5 243.5t-37 193.5t-82 151.5t-145.5 89t-223 35t-222 -35t-143.5 -89t-81 -151.5t-36.5 -195t-8 -242.5zM317 686q0 305 52.5 426 t230.5 121q76 0 128 -22.5t84 -61.5t48.5 -112.5t21.5 -150.5t5 -200t-5 -200.5t-21.5 -151.5t-48.5 -113t-84 -61.5t-128 -22.5t-127 22.5t-82 62.5t-47 113t-21.5 150.5t-5.5 200.5z" />
<glyph unicode="1" d="M256 0h770v166h-281v1206h-161q-113 -80 -326 -102v-127h277v-977h-279v-166z" />
<glyph unicode="2" d="M139 0h920v166h-637l397 430q106 119 163.5 218t57.5 210q0 377 -434 377q-244 0 -345 -105.5t-101 -316.5h184q0 129 52.5 191.5t197.5 62.5q240 0 240 -207q0 -80 -42 -145.5t-139 -165.5l-514 -561v-154z" />
<glyph unicode="3" d="M137 391q0 -215 105.5 -317.5t361.5 -102.5q238 0 357.5 100.5t119.5 278.5q0 246 -227 336q209 96 209 309q0 406 -457 406q-238 0 -340 -104.5t-102 -317.5h182q0 125 58.5 189.5t189.5 64.5q141 0 200.5 -60.5t59.5 -175.5q0 -111 -61.5 -175t-190.5 -64h-196v-156 h194q272 0 272 -244q0 -111 -65.5 -165t-213 -54t-211 62.5t-63.5 189.5h-182z" />
<glyph unicode="4" horiz-adv-x="1196" d="M49 279h672v-279h207v279h155v167h-155v926h-320l-559 -936v-157zM285 446l436 734v-734h-436z" />
<glyph unicode="5" d="M162 424q0 -225 100 -339t344 -114q258 0 367.5 108.5t109.5 321.5q0 242 -144 342.5t-470 100.5h-84l25 362h591v166h-768l-45 -700h230q262 0 359 -62.5t97 -208.5q0 -135 -59 -199.5t-208.5 -64.5t-206 72t-56.5 215h-182z" />
<glyph unicode="6" d="M109 592q0 -328 103 -474.5t394 -146.5q254 0 361.5 113t109.5 330q0 389 -454 389q-152 0 -308 -43q2 102 8.5 168.5t22.5 130t48 98.5t83 56.5t125 21.5q145 0 205.5 -63.5t60.5 -200.5h183q-2 223 -103.5 326.5t-347.5 103.5q-127 0 -215 -33t-142.5 -92t-84 -163.5 t-39.5 -223.5t-10 -297zM315 606q136 39 273 39q152 0 218 -63.5t66 -167.5q0 -137 -59 -207t-211 -70q-164 0 -223.5 95.5t-63.5 373.5z" />
<glyph unicode="7" d="M166 993h149v213h539l-526 -1206h225l528 1225v147h-915v-379z" />
<glyph unicode="8" d="M119 352q0 242 200 330q-182 89 -182 322q0 193 107.5 295t357.5 102t357.5 -102.5t107.5 -294.5q0 -219 -186 -308q205 -88 204 -344q0 -381 -483 -381t-483 381zM328 356q0 -109 63.5 -165t208.5 -56q276 0 277 221q0 115 -45.5 172.5t-157.5 75.5l-139 21 q-207 -40 -207 -269zM346 993q0 -104 44 -155.5t159 -69.5l110 -16q199 38 199 241q0 121 -56.5 182.5t-199.5 61.5q-145 0 -200.5 -61.5t-55.5 -182.5z" />
<glyph unicode="9" d="M111 961q0 -403 460 -404q160 0 299 39q-6 -270 -63 -364.5t-221 -94.5q-145 0 -207 66.5t-62 197.5h-182q2 -217 106.5 -323.5t348.5 -106.5q129 0 217 32t142.5 87t84 155.5t38.5 210t9 277.5q0 145 -11 244.5t-41 185.5t-83 135.5t-138 76t-206 26.5 q-256 0 -371.5 -112.5t-119.5 -327.5zM319 965q0 133 66 201.5t217 68.5q164 0 215 -99.5t55 -383.5q-133 -35 -262 -35q-154 0 -222.5 70.5t-68.5 177.5z" />
<glyph unicode=":" horiz-adv-x="487" d="M121 127q0 -43 6 -69.5t34 -50t81 -23.5q78 0 101.5 38.5t23.5 104.5q0 43 -6.5 69.5t-35 50t-83.5 23.5q-53 0 -81 -23.5t-34 -50t-6 -69.5zM121 965q0 -43 6 -70t34 -50.5t81 -23.5q78 0 101.5 39t23.5 105q0 43 -6.5 69.5t-35 50t-83.5 23.5q-53 0 -81 -23.5t-34 -50 t-6 -69.5z" />
<glyph unicode=";" horiz-adv-x="479" d="M68 -195l57 -69q233 184 233 391q0 43 -6 69.5t-33.5 50t-80.5 23.5q-51 0 -78 -23.5t-33 -50t-6 -69.5q0 -35 16.5 -87t16.5 -73q0 -53 -21.5 -87t-64.5 -75zM117 965q0 -43 6 -70t34 -50.5t81 -23.5q78 0 101 39t23 105q0 43 -6 69.5t-34.5 50t-83.5 23.5 q-53 0 -81 -23.5t-34 -50t-6 -69.5z" />
<glyph unicode="&#x3c;" d="M190 551l824 -348v172l-678 274l678 275v172l-824 -348v-197z" />
<glyph unicode="=" d="M193 360h819v156h-819v-156zM193 786h819v156h-819v-156z" />
<glyph unicode="&#x3e;" d="M190 203l824 348v197l-824 348v-172l676 -275l-676 -274v-172z" />
<glyph unicode="?" horiz-adv-x="991" d="M70 1139h178q0 109 55 165t186 56q137 0 192.5 -69.5t55.5 -198.5q0 -152 -67.5 -212.5t-200.5 -76.5l-102 -12l18 -388h131l23 267l28 4q193 29 284 117t91 305q0 211 -104.5 319.5t-348.5 108.5q-221 0 -320 -98.5t-99 -286.5zM330 127q0 43 6 69.5t33.5 50t81.5 23.5 q55 0 83.5 -24.5t33.5 -50t5 -68.5t-5 -68.5t-33.5 -50t-83.5 -24.5q-53 0 -81 23.5t-34 50t-6 69.5z" />
<glyph unicode="@" horiz-adv-x="2070" d="M176 671.5q0 -227.5 40 -384t136.5 -271t264 -169t419.5 -54.5v154q-166 0 -282.5 30.5t-190.5 85t-115.5 147.5t-57 200.5t-15.5 261t15.5 261t57 201t115.5 147.5t190.5 85t282.5 31q164 0 281 -31t190.5 -85t115.5 -147.5t57.5 -201t15.5 -260.5q0 -303 -64.5 -467 t-242.5 -219v921q0 293 -353 293q-195 0 -271.5 -75.5t-86.5 -225.5l168 -6q6 82 44 118t140 36q170 0 170 -129v-134l-268 -16q-168 -12 -231.5 -78.5t-63.5 -208.5q0 -131 63.5 -197.5t212.5 -66.5q164 0 291 100v-520q199 16 335 81t213 180.5t109.5 262t32.5 351.5 q0 227 -39.5 383.5t-136 271.5t-264.5 169t-418 54q-252 0 -419.5 -54t-264 -169t-136.5 -271.5t-40 -384zM821 492q0 86 33 118.5t121 38.5l225 15v-203q-104 -105 -233 -105q-78 0 -112 34t-34 102z" />
<glyph unicode="A" horiz-adv-x="1370" d="M6 0h424v139h-123l103 320h546l105 -320h-123v-139h426v139h-96l-445 1356h-278l-445 -1356h-94v-139zM465 625l219 680l221 -680h-440z" />
<glyph unicode="B" horiz-adv-x="1320" d="M135 0h627q147 0 243.5 30.5t142.5 92t61.5 124t15.5 152.5q0 72 -9.5 125.5t-37 105.5t-83 89t-139.5 55q115 43 155 128t40 210q0 86 -15.5 145.5t-61.5 119t-142 89t-244 29.5h-553v-139h123v-1217h-123v-139zM469 166v514h287q152 0 205 -64.5t53 -195.5 q0 -127 -54.5 -190.5t-203.5 -63.5h-287zM469 848v481h215q150 0 203 -59.5t53 -182.5q0 -121 -53 -180t-203 -59h-215z" />
<glyph unicode="C" horiz-adv-x="1284" d="M106 748q0 -115 5.5 -198t19.5 -169t41 -145.5t71 -112.5t105.5 -84t147.5 -49.5t196 -18.5q143 0 237.5 34t144.5 105.5t71.5 151.5t30.5 203l-172 8q-6 -160 -72 -245t-240 -85q-102 0 -172.5 28t-110.5 71t-60.5 127t-26 163.5t-5.5 215.5q0 127 7.5 214t30 166.5 t62.5 125.5t106.5 74t160.5 28q172 0 252 -84t90 -260h150v483h-152v-129q-109 158 -352 158q-143 0 -245.5 -35t-164 -94.5t-96.5 -162t-47.5 -214t-12.5 -270.5z" />
<glyph unicode="D" horiz-adv-x="1425" d="M135 0h592q158 0 266.5 35t172 92t98 157.5t45 204t10.5 259.5q0 109 -5 187.5t-19.5 161.5t-41 140t-70.5 109.5t-105.5 82t-149.5 48t-201 18.5h-258h-334v-139h123v-1217h-123v-139zM469 166v1163h240q104 0 178 -27.5t117 -72.5t65.5 -124t29.5 -158t7 -199.5 t-7 -199.5t-29.5 -158t-65.5 -124t-117 -72.5t-178 -27.5h-240z" />
<glyph unicode="E" horiz-adv-x="1302" d="M135 0h1051v362h-154v-196h-563v510h545v168h-545v485h522v-190h154v356h-1010v-139h123v-1217h-123v-139z" />
<glyph unicode="F" horiz-adv-x="1171" d="M135 0h498v141h-164v535h504v168h-504v485h481v-190h154v356h-969v-139h123v-27v-1188h-123v-141z" />
<glyph unicode="G" horiz-adv-x="1394" d="M106 748q0 -135 6.5 -226.5t26 -187.5t57 -156.5t99 -111t155 -73t220.5 -22.5q264 0 385 181l32 -152h111v756h-416v-140h232v-182q-12 -143 -90 -217t-244 -74q-84 0 -143.5 16.5t-99.5 54.5t-64.5 83t-35.5 121t-15.5 147.5t-4.5 182.5q0 127 6.5 209.5t29 165.5 t63.5 129t111.5 75t172.5 29q176 0 248 -87t84 -257h152v483h-154v-131q-98 160 -340 160q-150 0 -255 -36t-169.5 -96.5t-99.5 -163t-47.5 -212t-12.5 -268.5z" />
<glyph unicode="H" horiz-adv-x="1587" d="M135 0h457v139h-123v525h649v-525h-123v-139h457v139h-123v1217h123v139h-457v-139h123v-525h-649v525h123v139h-457v-139h123v-1217h-123v-139z" />
<glyph unicode="I" horiz-adv-x="753" d="M135 0h481v139h-135v1217h135v139h-481v-139h135v-1217h-135v-139z" />
<glyph unicode="J" horiz-adv-x="1001" d="M33 399q0 -72 3 -114.5t13 -99t33.5 -89.5t63.5 -64.5t103.5 -46t149.5 -14.5q106 0 181 22.5t117 55.5t64.5 90.5t29 108.5t6.5 127v981h123v139h-498v-139h164v-981q0 -133 -37 -182.5t-145.5 -49.5t-148.5 56.5t-40 199.5h-182z" />
<glyph unicode="K" horiz-adv-x="1351" d="M135 0h449v139h-115v537h149l351 -537h-103v-139h445v139h-115l-405 615l378 602h113v139h-444v-139h110l-317 -516h-162v516h106v139h-440v-139h123v-1217h-123v-139z" />
<glyph unicode="L" horiz-adv-x="1077" d="M135 0h922v362h-154v-196h-434v1190h164v139h-498v-139h123v-1217h-123v-139z" />
<glyph unicode="M" horiz-adv-x="1898" d="M135 0h449v139h-115v1035l367 -1027h196l398 1045v-1053h-115v-139h448v139h-123v1217h123v139h-420l-407 -1089l-379 1089h-422v-139h123v-1217h-123v-139z" />
<glyph unicode="N" horiz-adv-x="1615" d="M135 0h457v139h-123v1002l682 -1141h227v1356h123v139h-457v-139h123v-1004l-682 1143h-350v-139h123v-1217h-123v-139z" />
<glyph unicode="O" horiz-adv-x="1402" d="M106 748q0 -164 10.5 -269.5t45.5 -211t98.5 -165t172.5 -95.5t267 -36q131 0 229.5 22.5t163 72t105.5 111t62.5 155.5t28.5 188t7 228q0 162 -10 268t-45 210.5t-99.5 164t-174 96.5t-267.5 37q-113 0 -201.5 -18.5t-151 -50.5t-106.5 -86t-70 -112.5t-40 -145.5 t-19.5 -168t-5.5 -195zM317 747.5q0 126.5 6.5 208.5t29 164t63.5 128t111.5 75t172.5 29q100 0 172 -29t113 -75t63.5 -128t29.5 -165t7 -207.5t-7 -207.5t-29.5 -165t-63.5 -128t-113 -75t-172 -29q-102 0 -172.5 29t-111.5 75t-63.5 128t-29 164t-6.5 208.5z" />
<glyph unicode="P" horiz-adv-x="1251" d="M135 0h498v139h-164v408h246q145 0 241.5 38t140.5 109.5t59 146t15 179.5q0 106 -15 180t-59 146.5t-140.5 110.5t-241.5 38h-457h-123v-139h123v-1217h-123v-139zM469 713v616h225q166 0 216.5 -75.5t50.5 -233.5q0 -78 -8.5 -126t-35 -93t-82 -66.5t-141.5 -21.5h-225 z" />
<glyph unicode="Q" horiz-adv-x="1382" d="M106 748q0 -154 9.5 -256.5t38 -205t83 -163t147.5 -101t226 -49.5l174 -342h209l-174 349q121 12 205 56t133 104.5t76 160.5t35 199.5t8 247.5q0 162 -10.5 268t-44 210.5t-97 164t-171 96.5t-263 37t-263.5 -37t-170 -96.5t-96 -165t-44.5 -211t-10.5 -266.5z M317 747.5q0 124.5 6.5 207.5t29 165t62.5 128t108.5 75t166.5 29t168 -29t110 -75t62.5 -128t28.5 -165t6 -207.5t-6 -207.5t-28.5 -165t-62.5 -128t-110 -75t-168 -29t-166.5 29t-108.5 75t-62.5 128t-29 165t-6.5 207.5z" />
<glyph unicode="R" horiz-adv-x="1374" d="M135 0h449v139h-115v469h156q80 -4 123 -28.5t73 -94.5l207 -485h293v139h-129l-160 371q-37 84 -84 125q78 25 129 65.5t75 100t32 116t8 134.5q0 80 -7 136t-35 118.5t-76 100.5t-136 63.5t-209 25.5h-471h-123v-139h123v-1217h-123v-139zM469 774v555h256 q158 0 207 -70.5t49 -207.5q0 -66 -8 -110t-33 -85t-79 -61.5t-136 -20.5h-256z" />
<glyph unicode="S" horiz-adv-x="1226" d="M98 0h152v147q125 -176 403 -176q254 0 365.5 109.5t111.5 322.5q0 197 -89 286t-308 134l-166 33q-150 31 -195.5 79t-45.5 161q0 133 61.5 196.5t224.5 63.5q303 0 330 -264h152v403h-152v-131q-111 160 -375 160q-246 0 -349 -110.5t-103 -321.5q0 -197 85 -289 t300 -135l172 -33q143 -29 195.5 -80t52.5 -174q0 -127 -74 -184.5t-238 -57.5q-174 0 -264 85t-94 243h-152v-467z" />
<glyph unicode="T" horiz-adv-x="1140" d="M16 1130h156v201h293v-1192h-168v-139h547v139h-168v1192h295v-201h153v365h-1108v-365z" />
<glyph unicode="U" horiz-adv-x="1527" d="M92 1356h123v-862q0 -137 32 -235.5t79 -153t123.5 -86t146.5 -40t166 -8.5q98 0 167.5 8.5t147.5 40t125 86t79 152.5t32 236v862h123v139h-457v-139h123v-852q0 -115 -25.5 -189.5t-77 -108.5t-104.5 -46.5t-133 -12.5q-78 0 -130 12.5t-103.5 46.5t-77 108.5 t-25.5 189.5v852h123v139h-457v-139z" />
<glyph unicode="V" horiz-adv-x="1363" d="M37 1356h88l418 -1356h278l418 1356h88v139h-420v-139h121l-346 -1159l-344 1159h119v139h-420v-139z" />
<glyph unicode="W" horiz-adv-x="1884" d="M39 1356h82l285 -1356h307l229 1079l229 -1079h308l282 1356h84v139h-420v-139h125l-233 -1157l-270 1296h-209l-273 -1296l-233 1157h127v139h-420v-139z" />
<glyph unicode="X" horiz-adv-x="1331" d="M35 0h422v139h-99l293 471l312 -471h-99v-139h434v139h-98l-412 621l381 596h101v139h-420v-139h96l-268 -430l-285 430h101v139h-433v-139h97l383 -580l-406 -637h-100v-139z" />
<glyph unicode="Y" horiz-adv-x="1239" d="M20 1356h99l395 -838v-379h-147v-139h505v139h-147v379l395 838h99v139h-416v-139h106l-288 -633l-289 633h104v139h-416v-139z" />
<glyph unicode="Z" horiz-adv-x="1155" d="M61 0h1033v362h-154v-196h-623l756 1194v135h-971l-2 -166h2v-199h154v199h563l-758 -1196v-133z" />
<glyph unicode="[" horiz-adv-x="641" d="M164 -135h454v147h-241v1346h241v147h-454v-1640z" />
<glyph unicode="\" horiz-adv-x="694" d="M0 1587l485 -1804h209l-485 1804h-209z" />
<glyph unicode="]" horiz-adv-x="641" d="M23 12v-147h454v1640h-454v-147h241v-1346h-241z" />
<glyph unicode="^" d="M197 647h172l233 494l234 -494h172l-308 619h-196z" />
<glyph unicode="_" horiz-adv-x="1187" d="M143 0v-156h901v156h-901z" />
<glyph unicode="`" horiz-adv-x="643" d="M78 1540l115 152l362 -301l-88 -117z" />
<glyph unicode="a" horiz-adv-x="1245" d="M109 299q0 -160 79.5 -244t264.5 -84q211 0 395 146l33 -117h258v139h-123v733q0 328 -422 328q-236 0 -329 -93t-107 -282l172 -8q6 115 60 167t198 52q98 0 159.5 -42t61.5 -134v-182l-334 -21q-215 -16 -290.5 -98t-75.5 -260zM309 305q0 115 42 159t163 50l295 18 v-280q-131 -125 -303 -125q-106 0 -151.5 43t-45.5 135z" />
<glyph unicode="b" horiz-adv-x="1261" d="M66 1380h122v-1380h113l49 90q170 -119 359 -119q117 0 199.5 35t129.5 88t74 139t35 165t8 187.5t-8 187.5t-35 164t-74 139t-131 89t-198 35q-154 0 -314 -82v402h-207h-122v-140zM395 215v750q130 71 267 71q76 0 130 -25.5t83.5 -64.5t46 -102.5t21.5 -120.5t5 -137 q0 -86 -4 -144.5t-21.5 -121t-49 -99.5t-88 -61.5t-136.5 -24.5q-129 0 -254 80z" />
<glyph unicode="c" horiz-adv-x="1161" d="M106 586q0 -111 7.5 -187.5t36 -164t79 -140.5t142.5 -88t221 -35q133 0 222 27t137 82t68.5 119.5t27.5 162.5l-166 9q-6 -123 -62.5 -179.5t-212.5 -56.5q-78 0 -133 24.5t-86 61.5t-48 99.5t-21.5 121t-4.5 144.5q0 100 9.5 169.5t37 139.5t88 105.5t152.5 35.5 q272 0 301 -295h133v430h-141l2 -102q-109 131 -305 131q-125 0 -215 -35t-141.5 -88t-81 -138t-38 -165t-8.5 -188z" />
<glyph unicode="d" horiz-adv-x="1302" d="M106 585.5q0 -108.5 8.5 -187.5t35 -165t74.5 -139t133 -88t202 -35q188 0 352 133l25 -104h260v139h-123v1381h-330v-140h123v-237q-156 57 -301 57q-119 0 -205 -35t-134 -88t-75.5 -139t-36 -165t-8.5 -187.5zM313 586q0 88 6.5 150.5t24.5 123t51 97t87.5 58 t129.5 21.5q129 0 254 -49v-758q-119 -94 -258 -94q-76 0 -130 22.5t-86 60.5t-49 98.5t-23.5 122t-6.5 147.5z" />
<glyph unicode="e" horiz-adv-x="1212" d="M119 586q0 -158 21.5 -265.5t75.5 -189.5t154.5 -121t254.5 -39q135 0 227 30t139 88t67.5 120.5t28.5 150.5l-169 9q-8 -115 -69 -174.5t-220 -59.5q-176 0 -238.5 89t-66.5 308h782v54q0 109 -8 187.5t-37 164.5t-80 139t-143.5 88t-221.5 35t-222 -35t-145 -88 t-83 -139t-39 -165t-8 -187zM326 682q6 178 66 266t222 88q166 0 223.5 -88t63.5 -266h-575z" />
<glyph unicode="f" horiz-adv-x="731" d="M115 1032h133v-893h-123v-139h493v139h-163v893h229v139h-229v60q0 80 27.5 114.5t113.5 43.5l125 10v139h-164q-186 0 -247.5 -80t-61.5 -241v-46h-133v-139z" />
<glyph unicode="g" horiz-adv-x="1202" d="M96 -203q0 -70 24.5 -120t64.5 -78.5t106.5 -44t133.5 -20.5t163 -5q102 0 163.5 3t144.5 21.5t129 51.5t80 98.5t34 157.5q0 137 -84 211.5t-238 74.5h-457q-90 0 -90 72q0 51 45 96l76 76q90 -31 225 -31q143 0 236.5 33t136.5 98.5t56.5 130t13.5 158.5q0 188 -64 279 l131 133l-116 119l-150 -150q-98 39 -244 39q-117 0 -199.5 -23.5t-128.5 -60.5t-73 -95t-34 -112.5t-7 -128.5q0 -229 96 -321l-82 -82q-84 -84 -84 -184q0 -133 117 -177q-125 -86 -125 -219zM276 -172q0 104 78 172h402q53 0 89 -7t67.5 -41t31.5 -93q0 -51 -15.5 -84 t-40 -52.5t-72.5 -29.5t-94 -12.5t-126 -2.5q-164 0 -242 28t-78 122zM373 780.5q0 141.5 46 208t197.5 66.5t197.5 -66.5t46 -208t-46 -208t-198 -66.5t-197.5 66.5t-45.5 208z" />
<glyph unicode="h" horiz-adv-x="1415" d="M115 0h444v139h-115v770q162 127 340 127q104 0 148.5 -50t44.5 -169v-678h-115v-139h447v139h-123v690q0 371 -355 371q-199 0 -387 -125v445h-329v-140h123v-1241h-123v-139z" />
<glyph unicode="i" horiz-adv-x="688" d="M127 0h453v139h-123v1032h-330v-139h123v-893h-123v-139zM233 1477q0 -43 5.5 -69t34 -49.5t81.5 -23.5q43 0 70 11.5t37 36t13 44t3 50.5q0 33 -3 53t-13 43.5t-37 35t-70 11.5q-53 0 -81.5 -23.5t-34 -49t-5.5 -70.5z" />
<glyph unicode="j" horiz-adv-x="659" d="M-45 -291v-151h182q176 0 237.5 77.5t61.5 241.5v1294h-330v-139h123v-1130q0 -96 -27.5 -135t-113.5 -48zM225 1477q0 -43 5.5 -69t34 -49.5t81.5 -23.5q43 0 69.5 11.5t37 36t13.5 44t3 50.5q0 33 -3 53t-13.5 43.5t-37 35t-69.5 11.5q-53 0 -81.5 -23.5t-34 -49 t-5.5 -70.5z" />
<glyph unicode="k" horiz-adv-x="1236" d="M106 0h439v139h-109v420h129l289 -420h-100v-139h438v139h-113l-331 477l294 416h113v139h-438v-139h98l-227 -325h-152v813h-330v-140h123v-1241h-123v-139z" />
<glyph unicode="l" horiz-adv-x="667" d="M106 0h453v139h-123v1381h-330v-140h123v-1241h-123v-139z" />
<glyph unicode="m" horiz-adv-x="2109" d="M127 0h453v139h-123v781q136 116 300 116h3q109 0 155 -56t46 -169v-672h-115v-139h438v139h-117v692q0 41 -6 78q145 127 314 127q106 0 151 -57t45 -168v-672h-123v-139h455v139h-123v692q0 369 -369 369q-109 0 -213 -44t-178 -112q-88 156 -327 156q-199 0 -369 -139 l-53 110h-121h-123v-139h123v-893h-123v-139z" />
<glyph unicode="n" horiz-adv-x="1427" d="M127 0h444v139h-114v770q162 127 340 127q104 0 148 -50t44 -169v-678h-115v-139h447v139h-123v690q0 371 -354 371q-217 0 -418 -145l-64 116h-235v-139h123v-893h-123v-139z" />
<glyph unicode="o" horiz-adv-x="1245" d="M106 585.5q0 -108.5 8.5 -187.5t40 -165t85 -139t151 -88t232.5 -35t232 35t150.5 88t85 139t40 165t8.5 187.5t-8.5 187.5t-40 165t-85 139t-150.5 88t-232.5 35t-232.5 -35t-150.5 -88t-85 -139t-40 -165t-8.5 -187.5zM313 585.5q0 69.5 3 117t12.5 104.5t30 94t53 71 t86 49t125 15t125 -15t86 -49t53 -71t30 -94t12.5 -104.5t3 -117t-3 -116.5t-12.5 -104.5t-30 -94.5t-53 -70.5t-85.5 -49t-125 -15.5t-125.5 15.5t-86 49t-53 70.5t-30 94.5t-12.5 104.5t-3 116.5z" />
<glyph unicode="p" horiz-adv-x="1302" d="M106 -305v-137h494v137h-164v332q152 -55 301 -56q119 0 205 35t134 88t76 139t36 165t8 187.5t-8 187.5t-35 165t-74 139t-130 88t-199 35q-186 0 -357 -127l-51 98h-113h-123v-139h123v-1337h-123zM436 182v764q131 90 266 90q76 0 129.5 -25.5t84 -64.5t47 -102.5 t21.5 -120.5t5 -137q0 -88 -5 -148.5t-22.5 -122t-49 -98.5t-87 -59.5t-135.5 -22.5q-133 0 -254 47z" />
<glyph unicode="q" horiz-adv-x="1302" d="M106 585.5q0 -108.5 8.5 -187.5t36 -165t75.5 -139t134 -88t205 -35q141 0 301 68v-344h-164v-137h494v137h-123v1337h123v139h-123h-112l-46 -84q-154 113 -350 113q-119 0 -205 -35t-134 -88t-75.5 -139t-36 -165t-8.5 -187.5zM313 586q0 86 6.5 147.5t24.5 121.5 t50 98t87.5 60.5t130.5 22.5q143 0 254 -73v-770q-121 -58 -254 -58q-76 0 -131 22.5t-87 59.5t-50 97.5t-24.5 122t-6.5 149.5z" />
<glyph unicode="r" horiz-adv-x="874" d="M127 0h494v139h-164v670q129 197 397 207v184q-268 -10 -414 -227l-78 198h-112h-123v-139h123v-893h-123v-139z" />
<glyph unicode="s" horiz-adv-x="1163" d="M133 0h141l-4 121q117 -150 355 -150q411 0 411 340q0 147 -75.5 220t-241.5 116l-201 53q-94 25 -136 62t-42 106q0 76 51 122t162 46q166 0 232.5 -55t76.5 -231h133v421h-141l2 -94q-104 123 -321 123q-201 0 -301.5 -92t-100.5 -240q0 -160 76 -230.5t246 -119.5 l200 -51q96 -27 135 -64.5t39 -99.5q0 -168 -243 -168q-293 0 -322 287h-131v-422z" />
<glyph unicode="t" horiz-adv-x="761" d="M47 1032h184v-751q0 -53 3.5 -88t16.5 -81t38.5 -74t75 -47.5t116.5 -19.5q90 0 201 37l-25 135q-72 -16 -108 -16q-59 0 -85 37t-26 129v739h215v139h-215v263l-207 -29v-234h-184v-139z" />
<glyph unicode="u" horiz-adv-x="1425" d="M106 1032h123v-694q0 -182 81 -274.5t274 -92.5q223 0 428 148l47 -119h260v139h-123v1032h-330v-139h123v-766q-164 -131 -344 -131q-115 0 -162 53.5t-47 171.5v811h-207h-123v-139z" />
<glyph unicode="v" horiz-adv-x="1171" d="M4 1032h84l383 -1032h229l383 1032h84v139h-397v-139h102l-286 -805l-291 805h104v139h-395v-139z" />
<glyph unicode="w" horiz-adv-x="1609" d="M4 1032h72l299 -1032h209l221 784l221 -784h209l297 1032h74v139h-396v-139h113l-209 -762l-223 799h-174l-223 -799l-211 762h116v139h-395v-139z" />
<glyph unicode="x" horiz-adv-x="1181" d="M49 0h404v139h-101l226 322l235 -322h-90v-139h412v139h-93l-331 457l309 436h88v139h-399v-139h94l-201 -287l-209 287h88v139h-407v-139h90l307 -422l-336 -471h-86v-139z" />
<glyph unicode="y" horiz-adv-x="1171" d="M4 1032h86l399 -1055l-65 -180q-16 -45 -34.5 -62.5t-67.5 -21.5l-142 -12v-143h234q66 0 102.5 32.5t61.5 100.5l503 1341h86v139h-395v-139h100l-286 -786l-289 786h102v139h-395v-139z" />
<glyph unicode="z" horiz-adv-x="1044" d="M20 0h930v373h-139v-219h-541l666 882v135h-879v-372h140v219h493l-670 -883v-135z" />
<glyph unicode="{" horiz-adv-x="653" d="M43 618v136q51 0 98 21.5t47 72.5q0 39 -8 117.5t-8 126.5q0 416 459 415v-159q-244 0 -244 -285q0 -49 8 -123t8 -113q0 -59 -29.5 -95t-70.5 -36v-10q41 0 70.5 -36t29.5 -95q0 -39 -8 -113.5t-8 -126.5q0 -139 55.5 -214.5t188.5 -75.5v-160q-459 0 -459 416 q0 47 8 125.5t8 117.5q0 51 -47 72.5t-98 21.5z" />
<glyph unicode="|" horiz-adv-x="690" d="M229 -217h230v1804h-230v-1804z" />
<glyph unicode="}" horiz-adv-x="653" d="M23 25q135 0 189 76.5t54 215.5q0 51 -8 127t-8 117q0 59 29.5 95t70.5 36v10q-41 0 -70.5 37t-29.5 97q0 39 8 114.5t8 126.5q0 129 -54 200t-189 71v159q459 0 458 -415q0 -47 -8 -126t-8 -118q0 -51 46 -72.5t99 -21.5v-136q-53 0 -99 -21.5t-46 -72.5q0 -39 8 -117.5 t8 -125.5q0 -416 -458 -416v160z" />
<glyph unicode="~" d="M193 573q76 -45 176 -45q76 0 232.5 44t234.5 44q98 0 176 -43v156q-76 39 -176 39q-78 0 -235 -44t-232 -44q-106 0 -176 49v-156z" />
<glyph unicode="&#xa1;" horiz-adv-x="645" d="M201 1057q0 43 5 68.5t34 50t84 24.5q53 0 80.5 -23.5t33.5 -50t6 -69.5t-6 -69.5t-33.5 -50.5t-80.5 -24q-55 0 -84 25t-34 50.5t-5 68.5zM209 37v-348h231v348l-53 743h-125z" />
<glyph unicode="&#xa2;" horiz-adv-x="1187" d="M154 686q0 -102 8 -179t33.5 -159t70.5 -136t125 -93t189 -45v-226h141v226q197 16 277.5 110.5t95.5 261.5l-166 11q-4 -98 -50.5 -152.5t-156.5 -66.5v895q182 -25 192 -244l166 8q-16 178 -94 283.5t-264 117.5v226h-141v-228q-111 -12 -191 -52t-125 -93t-70.5 -135 t-32.5 -156t-7 -174zM362 686q0 96 6.5 155.5t26 126t65.5 105.5t120 55v-886q-70 12 -115 51t-66.5 104.5t-29 131t-7.5 157.5z" />
<glyph unicode="&#xa3;" d="M131 575h127v-221q0 -135 -106 -215v-139h960v166h-731q49 43 68.5 90t19.5 131v188h434v142h-434v276q0 121 45 180.5t166 59.5q117 0 169 -63.5t52 -192.5l184 14q0 209 -95 309.5t-320 100.5q-221 0 -316.5 -104.5t-95.5 -303.5v-276h-127v-142z" />
<glyph unicode="&#xa4;" horiz-adv-x="1222" d="M66 242l100 -101l166 166q92 -63 270 -63q182 0 289 59l166 -162l100 101l-162 161q57 96 58 283q0 190 -56 285l160 159l-100 101l-160 -158q-98 55 -260 55q-190 0 -301 -67l-170 170l-100 -101l174 -176q-49 -90 -49.5 -268t47.5 -272zM375 686q0 59 6 97t29.5 81 t80 64.5t146.5 21.5q80 0 129 -21.5t69.5 -64.5t26.5 -79.5t6 -98.5q0 -59 -6 -97t-30.5 -81t-82 -64.5t-147.5 -21.5q-78 0 -127 21.5t-68.5 64.5t-25.5 81t-6 97z" />
<glyph unicode="&#xa5;" d="M84 1372l260 -508h-194v-143h268l76 -148h-344v-143h348v-430h207v430h352v143h-348l75 148h273v143h-199l262 508h-217l-301 -608l-301 608h-217z" />
<glyph unicode="&#xa6;" horiz-adv-x="690" d="M229 -217h230v741h-230v-741zM229 846h230v741h-230v-741z" />
<glyph unicode="&#xa7;" horiz-adv-x="1179" d="M133 -92q0 -201 108.5 -302.5t364.5 -101.5q481 0 481 400q0 193 -116 291q116 96 116 299q0 168 -89 260t-285 127l-181 32q-178 31 -178 207q0 119 57.5 177.5t201 58.5t204 -60.5t60.5 -185.5l184 14q0 201 -105.5 300.5t-351.5 99.5t-351.5 -102.5t-105.5 -301.5 q0 -195 107 -289q-106 -96 -107 -301q0 -170 83 -260t270 -123l178 -32q203 -35 203 -211q0 -119 -62.5 -177.5t-216.5 -58.5q-156 0 -221.5 62.5t-65.5 189.5zM358 530q0 158 99 220l231 -48q96 -18 137 -68t41 -138q0 -158 -98 -220l-221 46q-104 18 -146.5 69t-42.5 139z " />
<glyph unicode="&#xa8;" horiz-adv-x="710" d="M23 1477q0 31 3 50t13 42.5t33.5 35t62.5 11.5q51 0 78 -23.5t32 -49t5 -66.5t-5 -67t-32 -48.5t-78 -22.5q-72 0 -92 37t-20 101zM461 1477q0 41 5 66.5t30.5 49t74.5 23.5q39 0 65 -11.5t36 -35t13 -43t3 -49.5q0 -41 -5 -67t-33 -48.5t-79 -22.5q-49 0 -74.5 22.5 t-30.5 48.5t-5 67z" />
<glyph unicode="&#xa9;" horiz-adv-x="1513" d="M131 1147q0 -338 143.5 -481.5t481.5 -143.5t482 143.5t144 481.5t-145 482.5t-481 144.5q-338 0 -481.5 -144.5t-143.5 -482.5zM254 1147q0 281 111.5 397.5t390.5 116.5q281 0 392.5 -117t111.5 -397q0 -279 -112 -395.5t-392.5 -116.5t-391 115.5t-110.5 396.5z M428 1149q0 -225 62.5 -326.5t257.5 -101.5q150 0 210 71.5t68 208.5l-111 7q-6 -182 -165 -183q-117 0 -154 77t-37 247q0 166 39 245t150 79q84 0 119.5 -36t43.5 -116l113 8q-12 125 -75.5 185.5t-203.5 60.5q-186 0 -251.5 -103.5t-65.5 -322.5z" />
<glyph unicode="&#xaa;" horiz-adv-x="868" d="M61 928q0 -231 240 -232q156 0 268 99l35 -78h201v121h-86v489q0 123 -86 176t-219 53q-168 0 -239 -67.5t-81 -202.5l154 -8q4 72 37.5 103.5t115.5 31.5q129 0 129 -102v-111l-202 -14q-156 -12 -211.5 -72.5t-55.5 -185.5zM78 492h727v122h-727v-122zM248 938 q0 68 23.5 94.5t95.5 30.5l163 10v-176q-68 -61 -172 -61q-59 0 -84.5 24.5t-25.5 77.5z" />
<glyph unicode="&#xab;" horiz-adv-x="1097" d="M61 604v82l357 387l114 -112l-245 -316l245 -315l-114 -113zM518 604v82l356 387l115 -112l-246 -316l246 -315l-115 -113z" />
<glyph unicode="&#xac;" d="M193 573h671v-282h148v438h-819v-156z" />
<glyph unicode="&#xad;" horiz-adv-x="1007" d="M143 573h721v156h-721v-156z" />
<glyph unicode="&#xae;" horiz-adv-x="1513" d="M131 1147q0 -338 143.5 -481.5t481.5 -143.5t482 143.5t144 481.5t-145 482.5t-481 144.5q-338 0 -481.5 -144.5t-143.5 -482.5zM254 1147q0 281 111.5 397.5t390.5 116.5q281 0 392.5 -117t111.5 -397q0 -279 -112 -395.5t-392.5 -116.5t-391 115.5t-110.5 396.5z M508 737h131v330h80q68 0 92 -63l115 -267h139l-121 277q-20 45 -49 71q82 25 108.5 82.5t26.5 149.5q0 115 -51 179.5t-211 64.5h-260v-824zM639 1167v291h127q82 0 107.5 -37t25.5 -108.5t-25.5 -108.5t-107.5 -37h-127z" />
<glyph unicode="&#xaf;" horiz-adv-x="741" d="M102 1397h537v166h-537v-166z" />
<glyph unicode="&#xb0;" horiz-adv-x="870" d="M84 1075q0 -84 11 -142.5t45 -117.5t107.5 -89t186.5 -30q115 0 188.5 30t107.5 89t45 117.5t11 142.5q0 86 -11 144.5t-45 117t-107.5 88t-188.5 29.5q-113 0 -186.5 -29.5t-107.5 -88t-45 -117t-11 -144.5zM262 1075.5q0 59.5 4 94t20.5 71.5t52.5 53.5t95.5 16.5 t95 -16.5t52 -53.5t20.5 -71.5t4 -94t-4 -94.5t-20.5 -72t-52.5 -53t-95 -16t-95 16t-52.5 53t-20.5 72t-4 94.5z" />
<glyph unicode="&#xb1;" d="M193 0h819v156h-819v-156zM193 676h331v-332h156v332h332v155h-332v332h-156v-332h-331v-155z" />
<glyph unicode="&#xb2;" horiz-adv-x="860" d="M137 707h578v127h-357l226 243q117 133 116 242q0 236 -268 235q-158 0 -222.5 -65.5t-64.5 -202.5h142q0 74 26.5 106.5t104.5 32.5q123 0 123 -106q0 -41 -23.5 -74t-83.5 -96l-297 -328v-114z" />
<glyph unicode="&#xb3;" horiz-adv-x="860" d="M135 956q0 -141 66.5 -203.5t232.5 -62.5q143 0 219 64t76 170q0 143 -135 198q123 59 123 183q0 250 -281 249q-158 0 -221 -63.5t-63 -204.5h143q0 72 28.5 105.5t96.5 33.5q135 0 135 -120q0 -63 -33 -95t-114 -32h-107v-121h105q162 0 161 -123q0 -117 -147 -117 q-76 0 -108.5 34t-32.5 105h-144z" />
<glyph unicode="&#xb4;" horiz-adv-x="643" d="M88 1391l88 -117l389 266l-114 152z" />
<glyph unicode="&#xb5;" horiz-adv-x="1312" d="M229 -465v1636h207v-905q164 -131 344 -131q115 0 162 53.5t47 171.5v811h207v-833q0 -182 -81 -274.5t-273 -92.5q-205 0 -406 131v-567h-207z" />
<glyph unicode="&#xb6;" horiz-adv-x="1040" d="M53 969q0 90 14.5 153.5t54.5 125t125 93t216 31.5h442v-139h-123v-1094h123v-139h-497v139h163v428h-108q-131 0 -216 32t-125 93.5t-54.5 125t-14.5 151.5z" />
<glyph unicode="&#xb7;" horiz-adv-x="487" d="M121 670q0 -43 6 -70t34 -50.5t81 -23.5q78 0 101.5 39t23.5 105q0 43 -6.5 69.5t-35 50t-83.5 23.5q-53 0 -81 -23.5t-34 -50t-6 -69.5z" />
<glyph unicode="&#xb8;" horiz-adv-x="612" d="M86 -283q0 -98 49 -154.5t170 -56.5q125 0 173 52.5t48 152.5q0 106 -50 148.5t-146 48.5l16 92h-125l-31 -172l111 -21q49 -8 67.5 -28.5t18.5 -61.5t-14.5 -62.5t-63.5 -21.5q-47 0 -61.5 20.5t-14.5 63.5h-147z" />
<glyph unicode="&#xb9;" horiz-adv-x="858" d="M203 1378h168v-544h-164v-127h491v127h-163v702h-129q-68 -49 -203 -61v-97z" />
<glyph unicode="&#xba;" horiz-adv-x="870" d="M63 1126q0 -76 6.5 -131t29 -114.5t61.5 -97.5t108.5 -62.5t165.5 -24.5q98 0 168 24.5t109 62.5t61.5 97.5t28.5 115t6 131t-6 131t-28.5 116t-61.5 97t-109 61t-168 24.5q-121 0 -198.5 -33.5t-112.5 -100t-47.5 -133t-12.5 -163.5zM84 492h700v122h-700v-122z M250 1126.5q0 57.5 2 93t12 76.5t29.5 63.5t54.5 38t86 15.5t87 -15.5t54.5 -37t28.5 -63.5t12 -76.5t2 -94t-2 -94.5t-12 -77t-28.5 -63.5t-54.5 -36.5t-87 -15t-86 15t-54.5 37.5t-29.5 63.5t-12 77t-2 93.5z" />
<glyph unicode="&#xbb;" horiz-adv-x="1097" d="M72 330l243 315l-243 316l114 112l355 -387v-82l-355 -387zM526 330l246 315l-246 316l115 112l356 -387v-82l-356 -387z" />
<glyph unicode="&#xbc;" horiz-adv-x="2021" d="M215 1225h168v-545h-164v-127h492v127h-164v702h-129q-68 -49 -203 -61v-96zM741 -135h140l440 1640h-141zM1223 152h399v-152h158v152h86v129h-86v548h-244l-313 -559v-118zM1407 281l215 387v-387h-215z" />
<glyph unicode="&#xbd;" horiz-adv-x="2021" d="M215 1225h168v-545h-164v-127h492v127h-164v702h-129q-68 -49 -203 -61v-96zM692 -135h139l441 1640h-142zM1278 0h577v127h-356l225 244q117 133 117 241q0 236 -268 236q-158 0 -222.5 -65.5t-64.5 -202.5h141q0 74 27 106.5t105 32.5q123 0 122 -107 q0 -41 -23.5 -73.5t-82.5 -96.5l-297 -327v-115z" />
<glyph unicode="&#xbe;" horiz-adv-x="2021" d="M147 803q0 -141 67 -203.5t232 -62.5q143 0 219 63.5t76 169.5q0 143 -135 199q123 59 123 182q0 250 -280 250q-158 0 -221.5 -63.5t-63.5 -204.5h143q0 72 29 105.5t96 33.5q135 0 135 -121q0 -63 -32.5 -95t-114.5 -32h-107v-121h105q162 0 162 -123q0 -117 -148 -116 q-76 0 -108.5 33.5t-32.5 105.5h-144zM743 -135h140l440 1640h-141zM1223 152h399v-152h158v152h86v129h-86v548h-244l-313 -559v-118zM1407 281l215 387v-387h-215z" />
<glyph unicode="&#xbf;" horiz-adv-x="991" d="M70 88q0 -211 104.5 -319.5t347.5 -108.5q221 0 320.5 98.5t99.5 286.5h-180q0 -109 -54.5 -165t-185.5 -56q-137 0 -192.5 69.5t-55.5 198.5q0 152 68 212.5t201 76.5l102 12l-18 387h-131l-23 -266l-29 -4q-193 -29 -283.5 -117t-90.5 -305zM438 1057q0 43 5.5 68.5 t34 50t83.5 24.5q53 0 81 -23.5t34 -50t6 -69.5t-6 -69.5t-34 -50.5t-81 -24q-55 0 -83.5 25t-34 50.5t-5.5 68.5z" />
<glyph unicode="&#xc0;" horiz-adv-x="1370" d="M6 0h424v139h-123l103 320h546l105 -320h-123v-139h426v139h-96l-445 1356h-278l-445 -1356h-94v-139zM440 1864l115 151l363 -301l-89 -117zM465 625l219 680l221 -680h-440z" />
<glyph unicode="&#xc1;" horiz-adv-x="1370" d="M6 0h424v139h-123l103 320h546l105 -320h-123v-139h426v139h-96l-445 1356h-278l-445 -1356h-94v-139zM451 1714l88 -117l389 267l-115 151zM465 625l219 680l221 -680h-440z" />
<glyph unicode="&#xc2;" horiz-adv-x="1370" d="M6 0h424v139h-123l103 320h546l105 -320h-123v-139h426v139h-96l-445 1356h-278l-445 -1356h-94v-139zM369 1696l94 -94l221 200l223 -200l94 94l-270 309h-92zM465 625l219 680l221 -680h-440z" />
<glyph unicode="&#xc3;" horiz-adv-x="1370" d="M6 0h424v139h-123l103 320h546l105 -320h-123v-139h426v139h-96l-445 1356h-278l-445 -1356h-94v-139zM338 1718l129 -41q16 47 36.5 68.5t55.5 21.5q27 0 125.5 -36.5t149.5 -36.5q68 0 115.5 49t80.5 166l-127 41q-16 -47 -36.5 -68.5t-55.5 -21.5q-27 0 -126 36.5 t-150 36.5q-68 0 -116 -49t-81 -166zM465 625l219 680l221 -680h-440z" />
<glyph unicode="&#xc4;" horiz-adv-x="1370" d="M6 0h424v139h-123l103 320h546l105 -320h-123v-139h426v139h-96l-445 1356h-278l-445 -1356h-94v-139zM350 1800q0 31 3 50.5t13.5 43t34 34.5t62.5 11q51 0 77.5 -23.5t32 -49t5.5 -66.5t-5.5 -66.5t-32 -48t-77.5 -22.5q-72 0 -92.5 37t-20.5 100zM465 625l219 680 l221 -680h-440zM788 1800q0 41 5.5 66.5t31 49t74.5 23.5q39 0 64.5 -11t36 -34.5t13.5 -43t3 -50.5q0 -41 -5 -66.5t-33 -48t-79 -22.5q-49 0 -74.5 22.5t-31 48t-5.5 66.5z" />
<glyph unicode="&#xc5;" horiz-adv-x="1370" d="M6 0h424v139h-123l103 320h546l105 -320h-123v-139h426v139h-96l-445 1356h-278l-445 -1356h-94v-139zM465 625l219 680l221 -680h-440zM477 1808q0 -47 5 -76.5t24.5 -64.5t62.5 -52.5t113 -17.5t115 17.5t64.5 52.5t24.5 64.5t5 76.5t-5 78t-24.5 66t-64.5 52t-115 17 t-113 -17t-62.5 -52t-24.5 -66t-5 -78zM604 1808.5q0 30.5 3 50t21.5 37t53.5 17.5q37 0 55.5 -17.5t22.5 -37t4 -50t-4 -49t-22.5 -36t-55.5 -17.5q-35 0 -53.5 17.5t-21.5 36t-3 49z" />
<glyph unicode="&#xc6;" horiz-adv-x="1994" d="M6 0h424v139h-117l203 537h436v-537h-123v-139h1051v362h-154v-196h-563v510h545v168h-545v485h523v-190h153v356h-153h-1059l-518 -1356h-103v-139zM580 844l184 485h188v-485h-372z" />
<glyph unicode="&#xc7;" horiz-adv-x="1302" d="M125 748q0 -145 8 -245t35 -198t73 -159.5t125.5 -105.5t192.5 -58l-27 -154l111 -21q49 -8 67.5 -28.5t18.5 -61.5t-14.5 -62.5t-63.5 -21.5q-47 0 -61.5 20.5t-14.5 63.5h-147q0 -98 49 -154.5t170 -56.5q125 0 173 52.5t48 152.5q0 106 -50 148.5t-146 48.5l10 65 q6 0 14.5 -1t14.5 -1q143 0 237 34t144.5 105.5t72 151.5t29.5 203l-172 8q-6 -160 -71.5 -245t-239.5 -85q-102 0 -173 28t-111 71t-60.5 127t-25.5 163.5t-5 215.5q0 127 7 214t29.5 166.5t62.5 125.5t106.5 74t160.5 28q172 0 252 -84t90 -260h150v483h-152v-129 q-109 158 -352 158q-143 0 -245.5 -35t-164 -94.5t-96 -162t-47 -214t-12.5 -270.5z" />
<glyph unicode="&#xc8;" horiz-adv-x="1302" d="M135 0h1051v362h-154v-196h-563v510h545v168h-545v485h522v-190h154v356h-1010v-139h123v-1217h-123v-139zM416 1864l114 151l363 -301l-88 -117z" />
<glyph unicode="&#xc9;" horiz-adv-x="1302" d="M135 0h1051v362h-154v-196h-563v510h545v168h-545v485h522v-190h154v356h-1010v-139h123v-1217h-123v-139zM424 1714l88 -117l389 267l-115 151z" />
<glyph unicode="&#xca;" horiz-adv-x="1302" d="M135 0h1051v362h-154v-196h-563v510h545v168h-545v485h522v-190h154v356h-1010v-139h123v-27v-1190h-123v-139zM342 1696l94 -94l221 200l224 -200l94 94l-270 309h-93z" />
<glyph unicode="&#xcb;" horiz-adv-x="1302" d="M135 0h1051v362h-154v-196h-563v510h545v168h-545v485h522v-190h154v356h-1010v-139h123v-1217h-123v-139zM326 1800q0 31 3 50.5t13 43t33.5 34.5t62.5 11q51 0 78 -23.5t32 -49t5 -66.5t-5 -66.5t-32 -48t-78 -22.5q-72 0 -92 37t-20 100zM764 1800q0 41 5 66.5 t30.5 49t74.5 23.5q39 0 65 -11t36 -34.5t13 -43t3 -50.5q0 -41 -5 -66.5t-33 -48t-79 -22.5q-49 0 -74.5 22.5t-30.5 48t-5 66.5z" />
<glyph unicode="&#xcc;" horiz-adv-x="753" d="M133 1864l115 151l362 -301l-88 -117zM135 0h481v139h-135v1217h135v139h-481v-139h135v-1217h-135v-139z" />
<glyph unicode="&#xcd;" horiz-adv-x="753" d="M135 0h481v139h-135v1217h135v139h-481v-139h135v-1217h-135v-139zM184 1714l88 -117l390 267l-115 151z" />
<glyph unicode="&#xce;" horiz-adv-x="753" d="M61 1696l95 -94l221 200l223 -200l94 94l-270 309h-92zM135 0h481v139h-135v1217h135v139h-481v-139h135v-1217h-135v-139z" />
<glyph unicode="&#xcf;" horiz-adv-x="753" d="M43 1800q0 31 3 50.5t13.5 43t34 34.5t62.5 11q51 0 77.5 -23.5t31.5 -49t5 -66.5t-5 -66.5t-31.5 -48t-77.5 -22.5q-72 0 -92.5 37t-20.5 100zM135 0h481v139h-135v1217h135v139h-481v-139h135v-1217h-135v-139zM481 1800q0 41 5.5 66.5t31 49t74.5 23.5q39 0 64.5 -11 t35.5 -34.5t13.5 -43t3.5 -50.5q0 -41 -5.5 -66.5t-33 -48t-78.5 -22.5q-49 0 -74.5 22.5t-31 48t-5.5 66.5z" />
<glyph unicode="&#xd0;" horiz-adv-x="1425" d="M135 0h592q158 0 266.5 35t172 92t98 157.5t45 204t10.5 259.5q0 109 -5 187.5t-19.5 161.5t-41 140t-70.5 109.5t-105.5 82t-149.5 48t-201 18.5h-258h-334v-156h123v-518h-123v-155h123v-512h-123v-154zM469 174v492h387v155h-387v500h240q106 0 179 -26.5t116 -70.5 t65.5 -122t29.5 -157t7 -197.5t-7 -197.5t-29.5 -157t-65.5 -122t-116 -70.5t-179 -26.5h-240z" />
<glyph unicode="&#xd1;" horiz-adv-x="1615" d="M135 0h457v139h-123v1002l682 -1141h227v1356h123v139h-457v-139h123v-1004l-682 1143h-350v-139h123v-1217h-123v-139zM483 1718l129 -41q16 47 37 68.5t56 21.5q27 0 125 -36.5t149 -36.5q68 0 116 49t81 166l-127 41q-16 -47 -37 -68.5t-56 -21.5q-27 0 -126 36.5 t-150 36.5q-68 0 -116 -49t-81 -166z" />
<glyph unicode="&#xd2;" horiz-adv-x="1402" d="M106 748q0 -164 10.5 -269.5t45.5 -211t98.5 -165t172.5 -95.5t267 -36q131 0 229.5 22.5t163 72t105.5 111t62.5 155.5t28.5 188t7 228q0 162 -10 268t-45 210.5t-99.5 164t-174 96.5t-267.5 37q-113 0 -201.5 -18.5t-151 -50.5t-106.5 -86t-70 -112.5t-40 -145.5 t-19.5 -168t-5.5 -195zM317 747.5q0 126.5 6.5 208.5t29 164t63.5 128t111.5 75t172.5 29q100 0 172 -29t113 -75t63.5 -128t29.5 -165t7 -207.5t-7 -207.5t-29.5 -165t-63.5 -128t-113 -75t-172 -29q-102 0 -172.5 29t-111.5 75t-63.5 128t-29 164t-6.5 208.5zM457 1864 l114 151l363 -301l-88 -117z" />
<glyph unicode="&#xd3;" horiz-adv-x="1402" d="M106 748q0 -164 10.5 -269.5t45.5 -211t98.5 -165t172.5 -95.5t267 -36q131 0 229.5 22.5t163 72t105.5 111t62.5 155.5t28.5 188t7 228q0 162 -10 268t-45 210.5t-99.5 164t-174 96.5t-267.5 37q-113 0 -201.5 -18.5t-151 -50.5t-106.5 -86t-70 -112.5t-40 -145.5 t-19.5 -168t-5.5 -195zM317 747.5q0 126.5 6.5 208.5t29 164t63.5 128t111.5 75t172.5 29q100 0 172 -29t113 -75t63.5 -128t29.5 -165t7 -207.5t-7 -207.5t-29.5 -165t-63.5 -128t-113 -75t-172 -29q-102 0 -172.5 29t-111.5 75t-63.5 128t-29 164t-6.5 208.5zM508 1714 l88 -117l389 267l-115 151z" />
<glyph unicode="&#xd4;" horiz-adv-x="1402" d="M106 748q0 -164 10.5 -269.5t45.5 -211t98.5 -165t172.5 -95.5t267 -36q131 0 229.5 22.5t163 72t105.5 111t62.5 155.5t28.5 188t7 228q0 162 -10 268t-45 210.5t-99.5 164t-174 96.5t-267.5 37q-113 0 -201.5 -18.5t-151 -50.5t-106.5 -86t-70 -112.5t-40 -145.5 t-19.5 -168t-5.5 -195zM317 747.5q0 126.5 6.5 208.5t29 164t63.5 128t111.5 75t172.5 29q100 0 172 -29t113 -75t63.5 -128t29.5 -165t7 -207.5t-7 -207.5t-29.5 -165t-63.5 -128t-113 -75t-172 -29q-102 0 -172.5 29t-111.5 75t-63.5 128t-29 164t-6.5 208.5zM385 1696 l94 -94l221 200l224 -200l94 94l-270 309h-93z" />
<glyph unicode="&#xd5;" horiz-adv-x="1402" d="M106 748q0 -164 10.5 -269.5t45.5 -211t98.5 -165t172.5 -95.5t267 -36q131 0 229.5 22.5t163 72t105.5 111t62.5 155.5t28.5 188t7 228q0 162 -10 268t-45 210.5t-99.5 164t-174 96.5t-267.5 37q-113 0 -201.5 -18.5t-151 -50.5t-106.5 -86t-70 -112.5t-40 -145.5 t-19.5 -168t-5.5 -195zM317 747.5q0 126.5 6.5 208.5t29 164t63.5 128t111.5 75t172.5 29q100 0 172 -29t113 -75t63.5 -128t29.5 -165t7 -207.5t-7 -207.5t-29.5 -165t-63.5 -128t-113 -75t-172 -29q-102 0 -172.5 29t-111.5 75t-63.5 128t-29 164t-6.5 208.5zM354 1718 l129 -41q16 47 37 68.5t55 21.5q27 0 125.5 -36.5t149.5 -36.5q68 0 116 49t81 166l-127 41q-16 -47 -37 -68.5t-56 -21.5q-27 0 -126 36.5t-150 36.5q-68 0 -116 -49t-81 -166z" />
<glyph unicode="&#xd6;" horiz-adv-x="1402" d="M106 748q0 -164 10.5 -269.5t45.5 -211t98.5 -165t172.5 -95.5t267 -36q131 0 229.5 22.5t163 72t105.5 111t62.5 155.5t28.5 188t7 228q0 162 -10 268t-45 210.5t-99.5 164t-174 96.5t-267.5 37q-113 0 -201.5 -18.5t-151 -50.5t-106.5 -86t-70 -112.5t-40 -145.5 t-19.5 -168t-5.5 -195zM317 747.5q0 126.5 6.5 208.5t29 164t63.5 128t111.5 75t172.5 29q100 0 172 -29t113 -75t63.5 -128t29.5 -165t7 -207.5t-7 -207.5t-29.5 -165t-63.5 -128t-113 -75t-172 -29q-102 0 -172.5 29t-111.5 75t-63.5 128t-29 164t-6.5 208.5zM367 1800 q0 31 3 50.5t13 43t33.5 34.5t62.5 11q51 0 78 -23.5t32 -49t5 -66.5t-5 -66.5t-32 -48t-78 -22.5q-72 0 -92 37t-20 100zM805 1800q0 41 5 66.5t30.5 49t74.5 23.5q39 0 65 -11t36 -34.5t13 -43t3 -50.5q0 -41 -5 -66.5t-33 -48t-79 -22.5q-49 0 -74.5 22.5t-30.5 48 t-5 66.5z" />
<glyph unicode="&#xd7;" d="M221 381l111 -111l270 273l270 -273l109 111l-270 270l270 271l-109 110l-270 -272l-270 272l-111 -110l273 -271z" />
<glyph unicode="&#xd8;" horiz-adv-x="1402" d="M106 748q0 -133 6.5 -225.5t28 -185.5t58.5 -154.5t101.5 -109.5t154.5 -73l-43 -193h139l39 170q53 -6 110 -6q131 0 229.5 22.5t163 72t105.5 111t62.5 155.5t28.5 188t7 228q0 131 -6 223t-27.5 185t-59.5 154.5t-102.5 110.5t-156.5 74l47 199h-141l-41 -176 q-51 6 -109 6q-113 0 -201.5 -18.5t-151 -50.5t-106.5 -86t-70 -112.5t-40 -145.5t-19.5 -168t-5.5 -195zM317 748q0 127 6.5 208.5t29 163.5t63.5 128t111.5 75t172.5 29q27 0 68 -4l-270 -1166q-111 57 -146 189.5t-35 376.5zM629 147l272 1164q111 -55 147.5 -189.5 t36.5 -373.5q0 -125 -7 -208t-29.5 -165t-63.5 -128t-113 -75t-172 -29q-27 0 -71 4z" />
<glyph unicode="&#xd9;" horiz-adv-x="1527" d="M92 1356h123v-862q0 -137 32 -235.5t79 -153t123.5 -86t146.5 -40t166 -8.5q98 0 167.5 8.5t147.5 40t125 86t79 152.5t32 236v862h123v139h-457v-139h123v-852q0 -115 -25.5 -189.5t-77 -108.5t-104.5 -46.5t-133 -12.5q-78 0 -130 12.5t-103.5 46.5t-77 108.5 t-25.5 189.5v852h123v139h-457v-139zM459 1864l114 151l363 -301l-88 -117z" />
<glyph unicode="&#xda;" horiz-adv-x="1527" d="M92 1356h123v-862q0 -137 32 -235.5t79 -153t123.5 -86t146.5 -40t166 -8.5q98 0 167.5 8.5t147.5 40t125 86t79 152.5t32 236v862h123v139h-457v-139h123v-852q0 -115 -25.5 -189.5t-77 -108.5t-104.5 -46.5t-133 -12.5q-78 0 -130 12.5t-103.5 46.5t-77 108.5 t-25.5 189.5v852h123v139h-457v-139zM633 1714l88 -117l389 267l-115 151z" />
<glyph unicode="&#xdb;" horiz-adv-x="1527" d="M92 1356h123v-862q0 -137 32 -235.5t79 -153t123.5 -86t146.5 -40t166 -8.5q98 0 167.5 8.5t147.5 40t125 86t79 152.5t32 236v862h123v139h-457v-139h123v-852q0 -115 -25.5 -189.5t-77 -108.5t-104.5 -46.5t-133 -12.5q-78 0 -130 12.5t-103.5 46.5t-77 108.5 t-25.5 189.5v852h123v139h-457v-139zM446 1696l95 -94l221 200l223 -200l94 94l-270 309h-92z" />
<glyph unicode="&#xdc;" horiz-adv-x="1527" d="M92 1356h123v-862q0 -137 32 -235.5t79 -153t123.5 -86t146.5 -40t166 -8.5q98 0 167.5 8.5t147.5 40t125 86t79 152.5t32 236v862h123v139h-457v-139h123v-852q0 -115 -25.5 -189.5t-77 -108.5t-104.5 -46.5t-133 -12.5q-78 0 -130 12.5t-103.5 46.5t-77 108.5 t-25.5 189.5v852h123v139h-457v-139zM432 1800q0 31 3 50.5t13.5 43t34 34.5t62.5 11q51 0 77.5 -23.5t31.5 -49t5 -66.5t-5 -66.5t-31.5 -48t-77.5 -22.5q-72 0 -92.5 37t-20.5 100zM870 1800q0 41 5.5 66.5t31 49t74.5 23.5q39 0 64.5 -11t36 -34.5t13.5 -43t3 -50.5 q0 -41 -5.5 -66.5t-33 -48t-78.5 -22.5q-49 0 -74.5 22.5t-31 48t-5.5 66.5z" />
<glyph unicode="&#xdd;" horiz-adv-x="1230" d="M16 1356h99l395 -838v-379h-148v-139h506v139h-147v379l395 838h98v139h-415v-139h106l-289 -633l-288 633h104v139h-416v-139zM383 1714l88 -117l389 267l-115 151z" />
<glyph unicode="&#xde;" horiz-adv-x="1251" d="M135 0h469v154h-135v143h246q145 0 241.5 36t140.5 104.5t59 138t15 170t-15 171t-59 139t-140.5 104.5t-241.5 36h-246v143h135v156h-469v-156h123v-1185h-123v-154zM469 473v547h225q86 0 142.5 -20.5t82 -62.5t34 -85t8.5 -107q0 -131 -51.5 -201.5t-215.5 -70.5h-225 z" />
<glyph unicode="&#xdf;" horiz-adv-x="1341" d="M115 0h329v1116q0 254 250 254q143 0 202.5 -62.5t59.5 -189.5q0 -115 -53 -193.5t-155 -78.5h-125v-156h221q129 0 183 -70.5t54 -207.5q0 -125 -40 -199t-146 -74q-111 0 -146.5 55.5t-35.5 188.5h-172q0 -217 76.5 -314.5t279.5 -97.5q391 0 391 424q0 168 -80 271.5 t-219 134.5q80 57 127 144t47 188q0 406 -456 405q-242 0 -355.5 -106.5t-113.5 -315.5v-977h-123v-139z" />
<glyph unicode="&#xe0;" horiz-adv-x="1245" d="M109 299q0 -160 79.5 -244t264.5 -84q211 0 395 146l33 -117h258v139h-123v733q0 328 -422 328q-236 0 -329 -93t-107 -282l172 -8q6 115 60 167t198 52q98 0 159.5 -42t61.5 -134v-182l-334 -21q-215 -16 -290.5 -98t-75.5 -260zM309 305q0 115 42 159t163 50l295 18 v-280q-131 -125 -303 -125q-106 0 -151.5 43t-45.5 135zM346 1540l115 152l362 -301l-88 -117z" />
<glyph unicode="&#xe1;" horiz-adv-x="1245" d="M109 299q0 -160 79.5 -244t264.5 -84q211 0 395 146l33 -117h258v139h-123v733q0 328 -422 328q-236 0 -329 -93t-107 -282l172 -8q6 115 60 167t198 52q98 0 159.5 -42t61.5 -134v-182l-334 -21q-215 -16 -290.5 -98t-75.5 -260zM309 305q0 115 42 159t163 50l295 18 v-280q-131 -125 -303 -125q-106 0 -151.5 43t-45.5 135zM449 1391l88 -117l389 266l-115 152z" />
<glyph unicode="&#xe2;" horiz-adv-x="1245" d="M109 299q0 -160 79.5 -244t264.5 -84q211 0 395 146l33 -117h258v139h-123v733q0 328 -422 328q-236 0 -329 -93t-107 -282l172 -8q6 115 60 167t198 52q98 0 159.5 -42t61.5 -134v-182l-334 -21q-215 -16 -290.5 -98t-75.5 -260zM272 1372l95 -94l221 201l223 -201 l94 94l-270 309h-92zM309 305q0 115 42 159t163 50l295 18v-280q-131 -125 -303 -125q-106 0 -151.5 43t-45.5 135z" />
<glyph unicode="&#xe3;" horiz-adv-x="1245" d="M109 299q0 -160 79.5 -244t264.5 -84q211 0 395 146l33 -117h258v139h-123v733q0 328 -422 328q-236 0 -329 -93t-107 -282l172 -8q6 115 60 167t198 52q98 0 159.5 -42t61.5 -134v-182l-334 -21q-215 -16 -290.5 -98t-75.5 -260zM242 1395l129 -41q16 47 36.5 68.5 t55.5 21.5q27 0 125 -37t149 -37q68 0 116 49t81 166l-127 41q-16 -47 -36.5 -68.5t-55.5 -21.5q-27 0 -126.5 37t-150.5 37q-68 0 -116 -49.5t-80 -165.5zM309 305q0 115 42 159t163 50l295 18v-280q-131 -125 -303 -125q-106 0 -151.5 43t-45.5 135z" />
<glyph unicode="&#xe4;" horiz-adv-x="1245" d="M109 299q0 -160 79.5 -244t264.5 -84q211 0 395 146l33 -117h258v139h-123v733q0 328 -422 328q-236 0 -329 -93t-107 -282l172 -8q6 115 60 167t198 52q98 0 159.5 -42t61.5 -134v-182l-334 -21q-215 -16 -290.5 -98t-75.5 -260zM270 1477q0 31 3 50t13.5 42.5t34 35 t62.5 11.5q51 0 77.5 -23.5t32 -49t5.5 -66.5t-5.5 -67t-32 -48.5t-77.5 -22.5q-72 0 -92.5 37t-20.5 101zM309 305q0 115 42 159t163 50l295 18v-280q-131 -125 -303 -125q-106 0 -151.5 43t-45.5 135zM709 1477q0 41 5 66.5t30.5 49t74.5 23.5q39 0 64.5 -11.5t36 -35 t13.5 -43t3 -49.5q0 -41 -5 -67t-33 -48.5t-79 -22.5q-49 0 -74.5 22.5t-30.5 48.5t-5 67z" />
<glyph unicode="&#xe5;" horiz-adv-x="1245" d="M109 299q0 -160 79.5 -244t264.5 -84q211 0 395 146l33 -117h258v139h-123v733q0 328 -422 328q-236 0 -329 -93t-107 -282l172 -8q6 115 60 167t198 52q98 0 159.5 -42t61.5 -134v-182l-334 -21q-215 -16 -290.5 -98t-75.5 -260zM309 305q0 115 42 159t163 50l295 18 v-280q-131 -125 -303 -125q-106 0 -151.5 43t-45.5 135zM381 1485q0 -47 5 -77t24.5 -64.5t62.5 -52t113 -17.5t114.5 17.5t64 52t25 64.5t5.5 77t-5.5 77.5t-25 65.5t-64.5 52.5t-114.5 17.5t-112.5 -17.5t-62.5 -52.5t-24.5 -65.5t-5 -77.5zM508 1485q0 31 3 50t21.5 36.5 t53.5 17.5q37 0 55 -17.5t22.5 -36.5t4.5 -50t-4.5 -49.5t-22.5 -36t-55 -17.5q-35 0 -53.5 17.5t-21.5 36t-3 49.5z" />
<glyph unicode="&#xe6;" horiz-adv-x="1830" d="M109 299q0 -160 79.5 -244t264.5 -84q233 0 413 160q113 -160 412 -160q135 0 226 30t139.5 88t69 120.5t28.5 150.5l-172 9q-8 -115 -67.5 -174.5t-221.5 -59.5q-176 0 -238.5 89t-66.5 308h782v54q0 109 -8 187.5t-37 164.5t-80 139t-143 88t-221 35q-221 0 -342 -100 q-102 100 -332 100q-236 0 -329 -93t-107 -282l172 -8q6 115 60 167t198 52q188 0 217 -135q-27 -92 -31 -225l-299 -19q-215 -16 -290.5 -98t-75.5 -260zM309 305q0 115 42 159t163 50l258 16q4 -174 37 -280q-135 -123 -303 -123q-106 0 -151.5 43t-45.5 135zM977 682 q6 178 66.5 266t222.5 88q166 0 223 -88t63 -266h-575z" />
<glyph unicode="&#xe7;" horiz-adv-x="1153" d="M106 586q0 -100 6.5 -171t28 -152t60.5 -134t108.5 -94t167.5 -55l-26 -152l110 -21q49 -8 67.5 -28.5t18.5 -61.5t-14.5 -62.5t-63.5 -21.5q-47 0 -61 20.5t-14 63.5h-148q0 -98 49 -154.5t170 -56.5q125 0 173 52.5t48 152.5q0 106 -50 148.5t-146 48.5l10 63 q131 2 217 29t134 82t68.5 119.5t27.5 160.5l-166 9q-6 -123 -62.5 -179.5t-212.5 -56.5q-78 0 -133 24.5t-86 61.5t-48 99.5t-21.5 121t-4.5 144.5q0 100 9.5 169.5t37 139.5t88 105.5t152.5 35.5q272 0 301 -295h133v430h-141l2 -102q-109 131 -305 131q-125 0 -215 -35 t-141.5 -88t-81 -138t-38 -165t-8.5 -188z" />
<glyph unicode="&#xe8;" horiz-adv-x="1200" d="M94 586q0 -158 21.5 -265.5t76 -189.5t154.5 -121t254 -39q135 0 227.5 30t139.5 88t67.5 120.5t28.5 150.5l-170 9q-8 -115 -68.5 -174.5t-220.5 -59.5q-176 0 -238.5 89t-66.5 308h782v54q0 109 -8 187.5t-36.5 164.5t-80 139t-143.5 88t-221 35t-222.5 -35t-145.5 -88 t-82.5 -139t-39 -165t-8.5 -187zM301 682q6 178 66.5 266t222.5 88q166 0 223 -88t64 -266h-576zM352 1540l115 152l362 -301l-88 -117z" />
<glyph unicode="&#xe9;" horiz-adv-x="1200" d="M94 586q0 -158 21.5 -265.5t76 -189.5t154.5 -121t254 -39q135 0 227.5 30t139.5 88t67.5 120.5t28.5 150.5l-170 9q-8 -115 -68.5 -174.5t-220.5 -59.5q-176 0 -238.5 89t-66.5 308h782v54q0 109 -8 187.5t-36.5 164.5t-80 139t-143.5 88t-221 35t-222.5 -35t-145.5 -88 t-82.5 -139t-39 -165t-8.5 -187zM301 682q6 178 66.5 266t222.5 88q166 0 223 -88t64 -266h-576zM440 1391l88 -117l390 266l-115 152z" />
<glyph unicode="&#xea;" horiz-adv-x="1200" d="M94 586q0 -158 21.5 -265.5t76 -189.5t154.5 -121t254 -39q135 0 227.5 30t139.5 88t67.5 120.5t28.5 150.5l-170 9q-8 -115 -68.5 -174.5t-220.5 -59.5q-176 0 -238.5 89t-66.5 308h782v54q0 109 -8 187.5t-36.5 164.5t-80 139t-143.5 88t-221 35t-222.5 -35t-145.5 -88 t-82.5 -139t-39 -165t-8.5 -187zM281 1372l94 -94l221 201l223 -201l94 94l-270 309h-92zM301 682q6 178 66.5 266t222.5 88q166 0 223 -88t64 -266h-576z" />
<glyph unicode="&#xeb;" horiz-adv-x="1200" d="M94 586q0 -158 21.5 -265.5t76 -189.5t154.5 -121t254 -39q135 0 227.5 30t139.5 88t67.5 120.5t28.5 150.5l-170 9q-8 -115 -68.5 -174.5t-220.5 -59.5q-176 0 -238.5 89t-66.5 308h782v54q0 109 -8 187.5t-36.5 164.5t-80 139t-143.5 88t-221 35t-222.5 -35t-145.5 -88 t-82.5 -139t-39 -165t-8.5 -187zM262 1477q0 31 3 50t13.5 42.5t34 35t62.5 11.5q51 0 77.5 -23.5t31.5 -49t5 -66.5t-5 -67t-31.5 -48.5t-77.5 -22.5q-72 0 -92.5 37t-20.5 101zM301 682q6 178 66.5 266t222.5 88q166 0 223 -88t64 -266h-576zM700 1477q0 41 5.5 66.5 t31 49t74.5 23.5q39 0 64.5 -11.5t36 -35t13.5 -43t3 -49.5q0 -41 -5 -67t-33 -48.5t-79 -22.5q-49 0 -74.5 22.5t-31 48.5t-5.5 67z" />
<glyph unicode="&#xec;" horiz-adv-x="688" d="M90 1540l115 152l362 -301l-88 -117zM127 0h453v139h-123v1032h-330v-139h123v-893h-123v-139z" />
<glyph unicode="&#xed;" horiz-adv-x="688" d="M127 0h453v139h-123v1032h-330v-139h123v-893h-123v-139zM152 1391l88 -117l389 266l-115 152z" />
<glyph unicode="&#xee;" horiz-adv-x="688" d="M18 1372l95 -94l221 201l223 -201l94 94l-270 309h-92zM127 0h453v139h-123v1032h-330v-139h123v-893h-123v-139z" />
<glyph unicode="&#xef;" horiz-adv-x="688" d="M0 1477q0 31 3 50t13.5 42.5t34 35t62.5 11.5q51 0 77.5 -23.5t31.5 -49t5 -66.5t-5 -67t-31.5 -48.5t-77.5 -22.5q-72 0 -92.5 37t-20.5 101zM127 0h453v139h-123v1032h-330v-139h123v-893h-123v-139zM438 1477q0 41 5.5 66.5t31 49t74.5 23.5q39 0 64.5 -11.5t35.5 -35 t13.5 -43t3.5 -49.5q0 -41 -5.5 -67t-33 -48.5t-78.5 -22.5q-49 0 -74.5 22.5t-31 48.5t-5.5 67z" />
<glyph unicode="&#xf0;" horiz-adv-x="1245" d="M106 504q0 -94 8.5 -163t40 -142.5t85 -120.5t150.5 -77t232.5 -30t232.5 30t150.5 77t85 120.5t40 142.5t8.5 163v43q0 440 -215 756l170 67v146l-256 -103q-43 49 -156 152l-100 -119q43 -41 94 -98l-127 -50v-145l211 84q84 -131 131 -293q-106 92 -268 92 q-135 0 -232.5 -29.5t-151 -76.5t-85 -121t-40 -142.5t-8.5 -162.5zM313 503.5q0 65.5 4.5 109.5t21.5 98.5t48 86t91.5 54t144.5 22.5t144 -22.5t91 -54t48.5 -86t21.5 -98.5t4 -109.5t-4 -109.5t-21.5 -99t-48.5 -87t-91 -54.5t-144 -22.5t-144.5 22.5t-91.5 54.5t-48 87 t-21.5 99t-4.5 109.5z" />
<glyph unicode="&#xf1;" horiz-adv-x="1351" d="M90 0h445v139h-115v770q162 127 340 127q104 0 148 -50t44 -169v-678h-114v-139h446v139h-123v690q0 371 -354 371q-217 0 -418 -145l-63 116h-236v-139h123v-893h-123v-139zM365 1395l129 -41q16 47 36.5 68.5t55.5 21.5q27 0 125 -37t149 -37q68 0 116 49t81 166 l-127 41q-16 -47 -37 -68.5t-55 -21.5q-27 0 -126.5 37t-150.5 37q-68 0 -116 -49.5t-80 -165.5z" />
<glyph unicode="&#xf2;" horiz-adv-x="1245" d="M106 585.5q0 -108.5 8.5 -187.5t40 -165t85 -139t151 -88t232.5 -35t232 35t150.5 88t85 139t40 165t8.5 187.5t-8.5 187.5t-40 165t-85 139t-150.5 88t-232.5 35t-232.5 -35t-150.5 -88t-85 -139t-40 -165t-8.5 -187.5zM313 585.5q0 69.5 3 117t12.5 104.5t30 94t53 71 t86 49t125 15t125 -15t86 -49t53 -71t30 -94t12.5 -104.5t3 -117t-3 -116.5t-12.5 -104.5t-30 -94.5t-53 -70.5t-85.5 -49t-125 -15.5t-125.5 15.5t-86 49t-53 70.5t-30 94.5t-12.5 104.5t-3 116.5zM379 1540l115 152l362 -301l-88 -117z" />
<glyph unicode="&#xf3;" horiz-adv-x="1245" d="M106 585.5q0 -108.5 8.5 -187.5t40 -165t85 -139t151 -88t232.5 -35t232 35t150.5 88t85 139t40 165t8.5 187.5t-8.5 187.5t-40 165t-85 139t-150.5 88t-232.5 35t-232.5 -35t-150.5 -88t-85 -139t-40 -165t-8.5 -187.5zM313 585.5q0 69.5 3 117t12.5 104.5t30 94t53 71 t86 49t125 15t125 -15t86 -49t53 -71t30 -94t12.5 -104.5t3 -117t-3 -116.5t-12.5 -104.5t-30 -94.5t-53 -70.5t-85.5 -49t-125 -15.5t-125.5 15.5t-86 49t-53 70.5t-30 94.5t-12.5 104.5t-3 116.5zM465 1391l88 -117l389 266l-115 152z" />
<glyph unicode="&#xf4;" horiz-adv-x="1245" d="M106 585.5q0 -108.5 8.5 -187.5t40 -165t85 -139t151 -88t232.5 -35t232 35t150.5 88t85 139t40 165t8.5 187.5t-8.5 187.5t-40 165t-85 139t-150.5 88t-232.5 35t-232.5 -35t-150.5 -88t-85 -139t-40 -165t-8.5 -187.5zM305 1372l94 -94l222 201l223 -201l94 94 l-270 309h-93zM313 585.5q0 69.5 3 117t12.5 104.5t30 94t53 71t86 49t125 15t125 -15t86 -49t53 -71t30 -94t12.5 -104.5t3 -117t-3 -116.5t-12.5 -104.5t-30 -94.5t-53 -70.5t-85.5 -49t-125 -15.5t-125.5 15.5t-86 49t-53 70.5t-30 94.5t-12.5 104.5t-3 116.5z" />
<glyph unicode="&#xf5;" horiz-adv-x="1245" d="M106 585.5q0 -108.5 8.5 -187.5t40 -165t85 -139t151 -88t232.5 -35t232 35t150.5 88t85 139t40 165t8.5 187.5t-8.5 187.5t-40 165t-85 139t-150.5 88t-232.5 35t-232.5 -35t-150.5 -88t-85 -139t-40 -165t-8.5 -187.5zM276 1395l130 -41q16 47 36.5 68.5t55.5 21.5 q27 0 125 -37t149 -37q68 0 116 49t81 166l-127 41q-16 -47 -37 -68.5t-55 -21.5q-27 0 -126.5 37t-150.5 37q-68 0 -116 -49.5t-81 -165.5zM313 585.5q0 69.5 3 117t12.5 104.5t30 94t53 71t86 49t125 15t125 -15t86 -49t53 -71t30 -94t12.5 -104.5t3 -117t-3 -116.5 t-12.5 -104.5t-30 -94.5t-53 -70.5t-85.5 -49t-125 -15.5t-125.5 15.5t-86 49t-53 70.5t-30 94.5t-12.5 104.5t-3 116.5z" />
<glyph unicode="&#xf6;" horiz-adv-x="1245" d="M106 585.5q0 -108.5 8.5 -187.5t40 -165t85 -139t151 -88t232.5 -35t232 35t150.5 88t85 139t40 165t8.5 187.5t-8.5 187.5t-40 165t-85 139t-150.5 88t-232.5 35t-232.5 -35t-150.5 -88t-85 -139t-40 -165t-8.5 -187.5zM289 1477q0 31 3 50t13 42.5t33.5 35t62.5 11.5 q51 0 78 -23.5t32 -49t5 -66.5t-5 -67t-32 -48.5t-78 -22.5q-72 0 -92 37t-20 101zM313 585.5q0 69.5 3 117t12.5 104.5t30 94t53 71t86 49t125 15t125 -15t86 -49t53 -71t30 -94t12.5 -104.5t3 -117t-3 -116.5t-12.5 -104.5t-30 -94.5t-53 -70.5t-85.5 -49t-125 -15.5 t-125.5 15.5t-86 49t-53 70.5t-30 94.5t-12.5 104.5t-3 116.5zM727 1477q0 41 5 66.5t30.5 49t75.5 23.5q39 0 64.5 -11.5t35.5 -35t13 -43t3 -49.5q0 -41 -5 -67t-32.5 -48.5t-78.5 -22.5q-49 0 -75 22.5t-31 48.5t-5 67z" />
<glyph unicode="&#xf7;" d="M193 573h819v156h-819v-156zM487 289q0 41 5.5 66.5t32 48t75.5 22.5q74 0 95.5 -37t21.5 -100q0 -39 -5 -64.5t-33 -48t-79 -22.5q-72 0 -92.5 36.5t-20.5 98.5zM487 991q0 29 3.5 49.5t13.5 43t33.5 33.5t62.5 11t63.5 -11t36 -33.5t14.5 -43t3 -49.5q0 -39 -6 -64.5 t-33 -48t-78 -22.5q-72 0 -92.5 36t-20.5 99z" />
<glyph unicode="&#xf8;" horiz-adv-x="1245" d="M106 586q0 -111 10.5 -191t38 -164t89 -141t153.5 -88l-63 -238h139l55 213q45 -6 95 -6q135 0 232 35t150.5 88t85 139t40 165t8.5 188q0 111 -10.5 190.5t-38 162.5t-88 140.5t-152.5 87.5l63 238h-141l-57 -211q-43 6 -92 6q-135 0 -232.5 -35t-151 -88t-85 -139 t-40 -165t-8.5 -187zM313 586q0 70 3 117t12.5 104t30 94t53 71t86 49t125.5 15q35 0 49 -2l-230 -858q-82 49 -105.5 147.5t-23.5 262.5zM571 137l232 856q80 -49 104.5 -148.5t24.5 -258.5q0 -70 -3 -117t-12.5 -104.5t-30 -94.5t-53 -70.5t-85.5 -49t-125 -15.5 q-35 0 -52 2z" />
<glyph unicode="&#xf9;" horiz-adv-x="1425" d="M106 1032h123v-694q0 -182 81 -274.5t274 -92.5q223 0 428 148l47 -119h260v139h-123v1032h-330v-139h123v-766q-164 -131 -344 -131q-115 0 -162 53.5t-47 171.5v811h-207h-123v-139zM422 1540l115 152l362 -301l-88 -117z" />
<glyph unicode="&#xfa;" horiz-adv-x="1425" d="M106 1032h123v-694q0 -182 81 -274.5t274 -92.5q223 0 428 148l47 -119h260v139h-123v1032h-330v-139h123v-766q-164 -131 -344 -131q-115 0 -162 53.5t-47 171.5v811h-207h-123v-139zM578 1391l88 -117l389 266l-115 152z" />
<glyph unicode="&#xfb;" horiz-adv-x="1425" d="M106 1032h123v-694q0 -182 81 -274.5t274 -92.5q223 0 428 148l47 -119h260v139h-123v1032h-330v-139h123v-766q-164 -131 -344 -131q-115 0 -162 53.5t-47 171.5v811h-207h-123v-139zM412 1372l94 -94l221 201l223 -201l94 94l-270 309h-92z" />
<glyph unicode="&#xfc;" horiz-adv-x="1425" d="M106 1032h123v-694q0 -182 81 -274.5t274 -92.5q223 0 428 148l47 -119h260v139h-123v1032h-330v-139h123v-766q-164 -131 -344 -131q-115 0 -162 53.5t-47 171.5v811h-330v-139zM393 1477q0 31 3 50t13.5 42.5t34 35t62.5 11.5q51 0 77.5 -23.5t32 -49t5.5 -66.5 t-5.5 -67t-32 -48.5t-77.5 -22.5q-72 0 -92.5 37t-20.5 101zM831 1477q0 41 5.5 66.5t31 49t74.5 23.5q39 0 64.5 -11.5t36 -35t13.5 -43t3 -49.5q0 -41 -5 -67t-33 -48.5t-79 -22.5q-49 0 -74.5 22.5t-31 48.5t-5.5 67z" />
<glyph unicode="&#xfd;" horiz-adv-x="1171" d="M4 1032h86l399 -1055l-65 -180q-16 -45 -34.5 -62.5t-67.5 -21.5l-142 -12v-143h234q66 0 102.5 32.5t61.5 100.5l503 1341h86v139h-395v-139h100l-286 -786l-289 786h102v139h-395v-139zM461 1391l88 -117l389 266l-115 152z" />
<glyph unicode="&#xfe;" horiz-adv-x="1286" d="M66 -297v-145h493v145h-164v332q168 -63 318 -64q121 0 207 35t134 88t75.5 139t34.5 165t7 187.5t-7 187.5t-34.5 165t-75.5 139t-134 88t-207 35q-160 0 -318 -113v433h-329v-146h122v-1671h-122zM395 195v720q131 113 285 113q92 0 151.5 -35t87 -102.5t37 -136 t9.5 -168.5q0 -113 -9.5 -182.5t-37 -135t-87 -96.5t-151.5 -31q-156 0 -285 54z" />
<glyph unicode="&#xff;" horiz-adv-x="1171" d="M4 1032h86l399 -1055l-65 -180q-16 -45 -34.5 -62.5t-67.5 -21.5l-142 -12v-143h234q66 0 102.5 32.5t61.5 100.5l503 1341h86v139h-395v-139h100l-286 -786l-289 786h102v139h-395v-139zM293 1477q0 31 3 50t13 42.5t34 35t63 11.5q51 0 77.5 -23.5t31.5 -49t5 -66.5 t-5 -67t-31.5 -48.5t-77.5 -22.5q-72 0 -92.5 37t-20.5 101zM731 1477q0 41 5 66.5t31 49t75 23.5q39 0 64.5 -11.5t35.5 -35t13 -43t3 -49.5q0 -41 -5 -67t-32.5 -48.5t-78.5 -22.5q-49 0 -75 22.5t-31 48.5t-5 67z" />
<glyph unicode="&#x152;" horiz-adv-x="2066" d="M106 748q0 -158 10.5 -259.5t44.5 -203t96 -158.5t170 -92t263 -35h1262v362h-156v-196h-639q113 143 119 510h504v168h-506q-6 342 -119 485h600v-190h156v356h-1221q-156 0 -263.5 -36t-169.5 -92t-96 -157.5t-44.5 -204t-10.5 -257.5zM317 747.5q0 120.5 6.5 199.5 t29 157t62.5 122t108.5 71.5t166.5 27.5t168 -27.5t110 -71.5t62.5 -122t28.5 -158t6 -198.5t-6 -198.5t-28.5 -158t-62.5 -122t-110 -71.5t-168 -27.5t-166.5 27.5t-108.5 71.5t-62.5 122t-29 157t-6.5 199.5z" />
<glyph unicode="&#x153;" horiz-adv-x="1994" d="M106 585.5q0 -108.5 8.5 -187.5t40 -165t85 -139t150.5 -88t233 -35q272 0 391 142q117 -142 393 -142q135 0 227 30t139.5 88t68 120.5t28.5 150.5l-170 9q-8 -115 -68.5 -174.5t-220.5 -59.5q-176 0 -238.5 89t-66.5 308h782v54q0 109 -8 187.5t-36.5 164.5t-80 139 t-143.5 88t-221 35q-262 0 -381 -145q-121 145 -395 145q-135 0 -232.5 -35t-151 -88t-85 -139t-40 -165t-8.5 -187.5zM313 585.5q0 69.5 3 117t12.5 104.5t30 94t53 71t86 49t125.5 15q268 0 292 -231q-14 -98 -14 -219q0 -123 12 -219q-20 -232 -290 -232 q-72 0 -125.5 15.5t-86 49t-53 70.5t-30 94.5t-12.5 104.5t-3 116.5zM1106 682q6 174 66.5 264t224.5 90q166 0 223 -89t63 -265h-577z" />
<glyph unicode="&#x178;" horiz-adv-x="1230" d="M16 1356h99l395 -838v-379h-148v-139h506v139h-147v379l395 838h98v139h-415v-139h106l-289 -633l-288 633h104v139h-416v-139zM283 1800q0 31 3 50.5t13 43t33.5 34.5t62.5 11q51 0 78 -23.5t32 -49t5 -66.5t-5 -66.5t-32 -48t-78 -22.5q-72 0 -92 37t-20 100zM721 1800 q0 41 5 66.5t30.5 49t74.5 23.5q39 0 65 -11t36 -34.5t13 -43t3 -50.5q0 -41 -5 -66.5t-33 -48t-79 -22.5q-49 0 -74.5 22.5t-30.5 48t-5 66.5z" />
<glyph unicode="&#x2c6;" horiz-adv-x="821" d="M94 1372l94 -94l222 201l223 -201l94 94l-270 309h-92z" />
<glyph unicode="&#x2dc;" horiz-adv-x="839" d="M74 1395l129 -41q16 47 36.5 68.5t55.5 21.5q27 0 125 -37t149 -37q68 0 116 49t81 166l-127 41q-16 -47 -36.5 -68.5t-55.5 -21.5q-27 0 -126 37t-151 37q-68 0 -116 -49.5t-80 -165.5z" />
<glyph unicode="&#x2000;" horiz-adv-x="1010" />
<glyph unicode="&#x2001;" horiz-adv-x="2021" />
<glyph unicode="&#x2002;" horiz-adv-x="1010" />
<glyph unicode="&#x2003;" horiz-adv-x="2021" />
<glyph unicode="&#x2004;" horiz-adv-x="673" />
<glyph unicode="&#x2005;" horiz-adv-x="505" />
<glyph unicode="&#x2006;" horiz-adv-x="336" />
<glyph unicode="&#x2007;" horiz-adv-x="336" />
<glyph unicode="&#x2008;" horiz-adv-x="252" />
<glyph unicode="&#x2009;" horiz-adv-x="404" />
<glyph unicode="&#x200a;" horiz-adv-x="112" />
<glyph unicode="&#x2010;" horiz-adv-x="1007" d="M143 573h721v156h-721v-156z" />
<glyph unicode="&#x2011;" horiz-adv-x="1007" d="M143 573h721v156h-721v-156z" />
<glyph unicode="&#x2012;" horiz-adv-x="1007" d="M143 573h721v156h-721v-156z" />
<glyph unicode="&#x2013;" horiz-adv-x="1187" d="M143 573h901v156h-901v-156z" />
<glyph unicode="&#x2014;" horiz-adv-x="1869" d="M143 573h1583v156h-1583v-156z" />
<glyph unicode="&#x2018;" horiz-adv-x="587" d="M147 1208q0 221 232 396l59 -70q-86 -72 -86 -162q0 -20 16.5 -71.5t16.5 -92.5t-5 -66.5t-33 -48t-77 -22.5q-123 0 -123 137z" />
<glyph unicode="&#x2019;" horiz-adv-x="563" d="M147 1139q86 68 86 161q0 23 -15 74t-15 90q0 43 5 69t31.5 48.5t75.5 22.5q74 0 98.5 -38t24.5 -102q0 -94 -49 -185t-93 -133t-89 -75z" />
<glyph unicode="&#x201a;" horiz-adv-x="479" d="M68 -195l57 -69q233 184 233 391q0 43 -6 69.5t-33.5 50t-80.5 23.5q-51 0 -78 -23.5t-33 -50t-6 -69.5q0 -35 16.5 -87t16.5 -73q0 -53 -21.5 -87t-64.5 -75z" />
<glyph unicode="&#x201c;" horiz-adv-x="931" d="M147 1208q0 221 232 396l61 -70q-88 -78 -88 -162q0 -20 16.5 -71.5t16.5 -92.5t-6 -66.5t-34 -48t-77 -22.5q-74 0 -97.5 38t-23.5 99zM494 1208q0 221 231 396l59 -70q-86 -72 -86 -162q0 -20 15.5 -71.5t15.5 -92.5t-5 -66.5t-31.5 -48t-76.5 -22.5q-74 0 -98 38 t-24 99z" />
<glyph unicode="&#x201d;" horiz-adv-x="931" d="M147 1139q86 68 86 161q0 23 -15 74t-15 90q0 43 5 69t31.5 48.5t75.5 22.5q74 0 98.5 -38t24.5 -102q0 -94 -49 -185t-93 -133t-89 -75zM492 1139q88 78 88 161q0 23 -15.5 74t-15.5 90q0 41 5 68t32.5 49.5t77.5 22.5q74 0 97 -38t23 -102q0 -219 -231 -393z" />
<glyph unicode="&#x201e;" horiz-adv-x="823" d="M66 -197q86 68 86 162q0 23 -15.5 74t-15.5 90q0 43 5 68.5t31.5 48t75.5 22.5q74 0 98.5 -37.5t24.5 -101.5q0 -94 -49 -185t-93 -133t-89 -75zM410 -197q88 78 88 162q0 23 -15.5 74t-15.5 90q0 41 5 67.5t32.5 49t77.5 22.5q74 0 97 -37.5t23 -101.5q0 -219 -231 -393 z" />
<glyph unicode="&#x2022;" horiz-adv-x="565" d="M98 686q0 -37 2 -62.5t13.5 -56t30 -50t53.5 -33t84 -13.5q61 0 101 17.5t57.5 53.5t22.5 66.5t5 77.5t-5 78t-22.5 65.5t-57.5 53t-101 18.5q-80 0 -123 -36t-51.5 -75.5t-8.5 -103.5z" />
<glyph unicode="&#x2026;" horiz-adv-x="1460" d="M121 127q0 43 6 69.5t33.5 50t81.5 23.5q78 0 101.5 -38.5t23.5 -104.5q0 -43 -6.5 -69.5t-35 -50t-83.5 -23.5q-53 0 -81 23.5t-34 50t-6 69.5zM608 127q0 43 6.5 69.5t34 50t80.5 23.5q55 0 84 -24.5t34 -50t5 -68.5t-5 -68.5t-34 -50t-84 -24.5q-53 0 -80.5 23.5 t-34 50t-6.5 69.5zM1096 127q0 43 5 68.5t32.5 50t80.5 24.5q43 0 70 -12t38 -35.5t14 -44t3 -51.5t-3 -51.5t-14 -44t-38 -35.5t-70 -12q-76 0 -97 37.5t-21 105.5z" />
<glyph unicode="&#x202f;" horiz-adv-x="404" />
<glyph unicode="&#x2039;" horiz-adv-x="641" d="M61 604v82l357 387l114 -112l-245 -316l245 -315l-114 -113z" />
<glyph unicode="&#x203a;" horiz-adv-x="641" d="M109 330l243 315l-243 316l114 112l357 -387v-82l-357 -387z" />
<glyph unicode="&#x205f;" horiz-adv-x="505" />
<glyph unicode="&#x20ac;" d="M80 469h129q18 -252 122.5 -375t366.5 -123q231 0 333 90.5t106 266.5l-183 14q0 -203 -256 -203q-150 0 -211 79t-73 251h399v143h-403v74v74h403v143h-399q12 172 73.5 251t210.5 79q121 0 187.5 -51.5t66.5 -147.5l185 15q-4 172 -105.5 262t-331.5 90 q-137 0 -230 -34t-147.5 -102.5t-80 -153.5t-33.5 -208h-129v-143h123v-74v-74h-123v-143z" />
<glyph unicode="&#x2122;" horiz-adv-x="2021" d="M141 1356h226v-766h165v766h226v139h-617v-139zM918 590h163v663l191 -557h153l209 570v-676h164v905h-233l-215 -598l-197 598h-235v-905z" />
<glyph unicode="&#x25fc;" horiz-adv-x="1167" d="M0 0v1167h1167v-1167h-1167z" />
<glyph unicode="&#xfb01;" horiz-adv-x="1388" d="M102 1032h134v-893h-123v-139h493v139h-164v893h230v139h-230v60q0 80 28 114.5t114 43.5l125 10v139h-164q-186 0 -247.5 -80t-61.5 -241v-46h-134v-139zM827 0h453v139h-123v1032h-330v-139h123v-893h-123v-139zM934 1477q0 -43 5 -69t34 -49.5t82 -23.5 q43 0 69.5 11.5t36.5 36t13.5 44t3.5 50.5q0 33 -3.5 53t-13.5 43.5t-36.5 35t-69.5 11.5q-53 0 -82 -23.5t-34 -49t-5 -70.5z" />
<glyph unicode="&#xfb02;" horiz-adv-x="1368" d="M102 1032h134v-893h-123v-139h493v139h-164v893h230v139h-230v60q0 80 28 114.5t114 43.5l125 10v139h-164q-186 0 -247.5 -80t-61.5 -241v-46h-134v-139zM807 0h453v139h-123v1381h-330v-140h123v-1241h-123v-139z" />
<glyph unicode="&#xfb03;" horiz-adv-x="2150" d="M115 1032h133v-893h-123v-139h493v139h-163v893h229v139h-229v60q0 80 27.5 114.5t113.5 43.5l125 10v139h-164q-186 0 -247.5 -80t-61.5 -241v-46h-133v-139zM846 1032h133v-893h-123v-139h494v139h-164v893h229v139h-229v60q0 80 27.5 114.5t113.5 43.5l125 10v139 h-164q-186 0 -247.5 -80t-61.5 -241v-46h-133v-139zM1591 0h453v139h-123v1032h-330v-139h123v-893h-123v-139zM1698 1477q0 -43 5 -69t34 -49.5t82 -23.5q43 0 69.5 11.5t36.5 36t13.5 44t3.5 50.5q0 33 -3.5 53t-13.5 43.5t-36.5 35t-69.5 11.5q-53 0 -82 -23.5t-34 -49 t-5 -70.5z" />
<glyph unicode="&#xfb04;" horiz-adv-x="2129" d="M115 1032h133v-893h-123v-139h493v139h-163v893h229v139h-229v60q0 80 27.5 114.5t113.5 43.5l125 10v139h-164q-186 0 -247.5 -80t-61.5 -241v-46h-133v-139zM846 1032h133v-893h-123v-139h494v139h-164v893h229v139h-229v60q0 80 27.5 114.5t113.5 43.5l125 10v139 h-164q-186 0 -247.5 -80t-61.5 -241v-46h-133v-139zM1571 0h452v139h-122v1381h-330v-140h123v-1241h-123v-139z" />
</font>
</defs>
</svg>
